<?xml version="1.0" standalone="no"?>
<!DOCTYPE svg PUBLIC "-//W3C//DTD SVG 20010904//EN"
 "http://www.w3.org/TR/2001/REC-SVG-20010904/DTD/svg10.dtd">
<svg version="1.0" xmlns="http://www.w3.org/2000/svg"
 width="1024.000000pt" height="1024.000000pt" viewBox="0 0 1024.000000 1024.000000"
 preserveAspectRatio="xMidYMid meet">

<g transform="translate(0.000000,1024.000000) scale(0.100000,-0.100000)"
fill="#000000" stroke="none">
<path d="M3517 7985 c-20 -14 -37 -28 -37 -31 0 -2 17 6 37 20 20 14 41 22 46
19 6 -3 7 -1 3 5 -9 15 -5 16 -49 -13z"/>
<path d="M2545 7760 c-10 -11 -15 -23 -12 -27 4 -3 7 -1 7 6 0 7 7 11 15 8 8
-4 17 -1 21 5 5 7 2 8 -6 3 -10 -6 -12 -4 -7 8 8 22 4 21 -18 -3z"/>
<path d="M2480 7685 c-18 -19 -32 -36 -29 -38 2 -2 19 14 38 35 42 48 36 50
-9 3z"/>
<path d="M2564 7678 l-29 -33 33 29 c17 17 32 31 32 33 0 8 -8 1 -36 -29z"/>
<path d="M2925 7700 c-3 -5 -2 -10 4 -10 5 0 13 5 16 10 3 6 2 10 -4 10 -5 0
-13 -4 -16 -10z"/>
<path d="M3468 7673 c7 -3 16 -2 19 1 4 3 -2 6 -13 5 -11 0 -14 -3 -6 -6z"/>
<path d="M2679 7613 l-24 -28 28 24 c25 23 32 31 24 31 -2 0 -14 -12 -28 -27z"/>
<path d="M2849 7633 c-1 -5 -1 -11 0 -15 1 -7 -39 -32 -49 -30 -3 0 -4 -6 -2
-15 2 -10 -1 -12 -9 -7 -8 5 -10 3 -4 -5 5 -9 18 -2 46 25 22 21 39 42 39 46
0 10 -20 11 -21 1z"/>
<path d="M4765 7615 c0 -18 3 -21 13 -13 6 6 12 14 12 18 0 4 -6 10 -12 13 -8
3 -13 -4 -13 -18z"/>
<path d="M2619 7603 c-13 -16 -12 -17 4 -4 9 7 17 15 17 17 0 8 -8 3 -21 -13z"/>
<path d="M3089 7593 l-24 -28 28 24 c25 23 32 31 24 31 -2 0 -14 -12 -28 -27z"/>
<path d="M2384 7576 c-31 -33 -106 -132 -177 -233 -21 -29 -52 -74 -70 -100
-57 -81 -151 -243 -210 -360 -205 -408 -339 -862 -399 -1353 -17 -139 -17
-604 0 -730 37 -266 71 -436 133 -650 169 -594 471 -1103 939 -1584 194 -199
430 -390 690 -557 154 -98 522 -282 695 -347 339 -127 695 -203 1095 -233 151
-12 156 -13 182 -40 34 -36 51 -36 88 0 28 26 38 29 133 35 153 10 354 34 517
62 1022 173 1993 829 2558 1731 123 196 274 516 361 768 97 276 175 666 201
1005 28 350 -23 795 -136 1198 -48 171 -130 396 -186 510 -9 17 -14 19 -20 10
-6 -9 -7 -5 -3 9 7 26 -73 196 -88 186 -5 -3 -7 0 -4 8 5 14 -83 192 -91 184
-2 -2 7 -25 22 -51 14 -25 26 -52 26 -59 0 -17 -35 -47 -44 -38 -4 5 0 -8 9
-28 17 -35 45 -49 45 -23 0 8 9 5 23 -9 13 -12 21 -26 19 -31 -3 -4 -8 -2 -13
5 -15 25 -19 2 -4 -27 8 -16 15 -36 15 -44 -1 -8 -10 3 -21 25 -11 22 -17 45
-15 52 3 7 -1 10 -9 7 -11 -5 -9 -17 12 -59 15 -30 31 -51 36 -48 6 3 7 1 3
-5 -9 -15 75 -213 87 -205 6 3 7 1 3 -6 -4 -7 6 -47 23 -89 121 -305 215 -758
228 -1100 l6 -163 -27 12 c-32 15 -32 14 -46 209 -33 459 -176 969 -383 1375
-67 131 -137 255 -144 255 -2 0 9 -25 26 -55 18 -31 29 -61 25 -67 -5 -7 -3
-8 5 -4 8 6 11 2 9 -10 -2 -12 2 -18 11 -16 8 2 11 -3 8 -13 -4 -8 -2 -15 4
-15 6 0 8 -7 5 -16 -3 -8 -2 -12 4 -9 13 8 31 -30 24 -52 -5 -15 -4 -16 6 -3
9 12 11 10 6 -11 -3 -15 1 -34 10 -47 8 -12 10 -22 5 -22 -6 0 -20 18 -31 40
-11 22 -23 40 -25 40 -3 0 7 -24 22 -53 27 -53 28 -53 45 -33 17 21 17 21 18
-7 0 -16 4 -36 9 -46 6 -11 6 -22 0 -32 -9 -12 -10 -12 -6 1 2 8 -2 21 -9 28
-7 7 -11 20 -8 30 5 14 4 14 -4 3 -7 -10 -3 -30 15 -70 95 -205 208 -596 256
-886 28 -162 54 -461 44 -488 -7 -20 -40 -22 -54 -4 -6 6 -15 82 -22 168 -27
367 -100 695 -233 1046 -31 81 -54 130 -61 126 -6 -4 -8 0 -4 11 4 9 3 15 -3
11 -5 -3 -8 3 -8 12 1 31 -21 75 -34 67 -7 -5 -8 -3 -3 6 5 8 -5 37 -26 76
-31 59 -34 62 -50 48 -15 -13 -16 -20 -7 -40 10 -21 13 -22 20 -9 5 8 14 15
19 15 6 0 1 -14 -11 -30 -12 -17 -27 -27 -33 -24 -7 4 -9 4 -5 -1 4 -4 2 -15
-4 -24 -9 -12 -7 -11 8 2 17 14 23 15 31 5 20 -24 56 -103 110 -238 126 -313
218 -731 239 -1081 7 -112 6 -116 -17 -137 -36 -34 -47 -28 -53 31 -3 28 -10
106 -16 172 -14 143 -30 244 -71 425 -55 248 -164 581 -184 563 -4 -5 -5 -3
-1 4 3 7 -12 55 -35 108 -30 73 -38 99 -30 109 15 18 -11 30 -28 13 -12 -12
-16 3 -3 19 4 5 -1 0 -12 -11 -18 -20 -18 -20 -15 0 5 32 -22 100 -32 84 -6
-10 -9 -5 -9 16 0 17 -8 38 -17 47 -31 29 -42 46 -35 54 4 4 1 4 -5 0 -18 -10
-17 -17 16 -67 16 -24 34 -61 42 -81 7 -20 15 -35 19 -33 3 2 4 -12 2 -31 -5
-45 -16 -43 -32 7 -8 22 -18 43 -23 46 -7 4 -8 -1 -3 -12 4 -10 2 -21 -5 -25
-8 -6 -8 -13 1 -30 6 -12 9 -28 6 -36 -5 -12 -1 -14 15 -9 14 5 19 3 15 -3 -9
-15 25 -83 37 -75 6 3 7 1 4 -5 -4 -5 -4 -18 0 -28 6 -16 7 -16 14 2 7 18 8
18 8 -2 1 -11 8 -29 16 -40 8 -10 14 -23 15 -29 0 -5 -9 4 -20 20 -24 36 -26
30 -4 -14 9 -17 20 -28 26 -25 7 4 8 2 4 -4 -4 -7 -4 -18 0 -24 5 -7 9 -19 9
-28 1 -8 14 -53 29 -100 97 -299 144 -531 172 -835 19 -222 21 -205 -25 -205
-39 0 -39 0 -51 53 -18 74 -53 142 -115 222 l-53 69 39 56 c46 67 69 128 69
179 0 48 -39 129 -81 167 -84 77 -157 99 -355 109 -76 4 -142 10 -146 13 -4 4
-21 43 -39 87 -17 44 -40 96 -50 116 -16 32 -16 38 -3 57 9 14 21 19 32 15 12
-4 14 -3 7 5 -5 6 -25 14 -44 19 -29 8 -39 19 -85 111 -29 56 -56 105 -59 109
-10 9 -4 -28 6 -45 5 -7 6 -21 2 -31 -4 -14 0 -23 14 -31 11 -5 18 -16 16 -23
-3 -6 4 -34 14 -62 11 -27 20 -42 21 -32 0 9 4 17 9 17 20 0 -4 -42 -35 -64
-19 -12 -31 -26 -26 -31 4 -4 -1 -5 -11 -2 -11 4 -21 0 -29 -12 -7 -11 -18
-17 -26 -13 -11 4 -13 1 -7 -8 6 -9 4 -11 -4 -6 -7 5 -20 1 -29 -7 -9 -8 -30
-17 -45 -21 -15 -4 -26 -10 -23 -14 2 -4 -3 -8 -12 -8 -9 -1 -24 -4 -32 -7
-22 -9 -88 82 -69 94 8 5 49 30 92 56 42 26 77 53 77 60 0 18 -5 17 -61 -13
-27 -15 -46 -31 -42 -37 4 -6 0 -8 -11 -4 -10 4 -15 3 -11 -3 3 -5 -5 -14 -17
-21 -22 -12 -22 -11 -8 6 14 17 14 18 -7 6 -13 -6 -23 -17 -23 -23 0 -6 -9 -3
-19 6 -23 21 -44 12 -36 -13 4 -14 -10 -27 -61 -58 -36 -23 -62 -43 -57 -45 4
-3 3 -3 -4 -2 -15 4 -129 -64 -126 -76 5 -18 -35 3 -48 26 -9 18 -15 21 -22
12 -6 -9 -7 -8 -3 5 6 20 -27 80 -39 69 -5 -4 -5 -2 -1 5 3 6 -10 37 -30 68
-41 65 -48 49 62 129 33 24 71 49 83 55 12 7 18 17 15 23 -4 6 -3 8 3 5 12 -8
76 16 68 25 -3 2 2 5 10 5 11 0 12 -4 4 -14 -7 -7 -13 -28 -15 -46 -1 -17 0
-26 3 -19 2 6 8 10 12 7 5 -2 7 7 5 20 -1 14 2 23 7 19 5 -3 7 -11 3 -17 -3
-7 4 0 16 16 17 21 30 27 59 27 45 0 53 6 39 30 -9 14 -8 24 7 47 11 15 18 32
17 37 -2 5 4 6 12 3 9 -4 21 4 31 19 9 14 20 22 25 19 6 -3 7 1 4 10 -4 10 -2
15 6 13 7 -2 14 5 15 15 3 14 -4 12 -33 -12 -48 -37 -122 -74 -122 -61 0 5 -5
10 -12 10 -9 0 -9 -3 0 -12 18 -18 14 -34 -7 -34 -14 0 -17 4 -10 12 7 8 5 11
-7 10 -9 0 -19 6 -21 14 -4 12 -3 12 5 2 7 -11 10 -11 15 3 4 9 3 13 -3 10 -6
-3 -10 -2 -10 4 0 5 6 12 12 14 10 4 10 6 0 6 -8 1 -10 6 -6 14 4 7 3 9 -2 4
-5 -5 -9 -12 -9 -15 -1 -20 -30 -54 -53 -64 -22 -9 -23 -12 -9 -15 29 -7 20
-27 -26 -56 -15 -10 -25 -22 -22 -27 4 -6 3 -10 -2 -11 -28 -2 -49 -13 -134
-71 l-94 -64 -24 28 c-16 20 -29 27 -42 23 -10 -4 -19 -2 -19 3 0 6 5 12 12
14 14 5 -188 208 -206 208 -6 -1 -1 -9 11 -19 12 -10 19 -21 16 -25 -10 -9
-25 -7 -19 3 3 5 -1 14 -9 21 -12 10 -15 10 -15 -1 0 -8 34 -45 75 -83 42 -37
96 -95 122 -127 39 -51 48 -57 62 -47 14 11 14 11 3 -3 -10 -13 -7 -22 15 -52
44 -56 97 -145 139 -229 30 -60 43 -77 63 -81 14 -3 200 -6 414 -7 213 0 393
-3 401 -6 14 -5 351 -384 480 -539 100 -120 143 -223 112 -269 -13 -20 -13
-26 -1 -42 17 -24 10 -63 -21 -128 -28 -56 -47 -82 -113 -151 -26 -27 -69 -75
-95 -105 -97 -112 -253 -263 -310 -301 l-58 -39 -398 0 -397 0 -13 -42 c-24
-77 -105 -241 -164 -333 -146 -226 -394 -458 -633 -593 -395 -222 -859 -293
-1315 -201 -223 45 -457 144 -668 284 -144 95 -361 311 -453 450 -76 115 -167
293 -193 378 l-18 57 -388 0 -389 0 -57 39 c-31 21 -81 60 -109 86 -68 60
-350 367 -392 424 -41 58 -68 146 -50 167 9 12 9 22 0 52 -10 29 -10 48 -2 77
25 91 62 136 467 569 l150 161 401 5 c221 3 403 7 406 10 2 3 18 36 35 74 33
70 142 244 193 305 15 19 26 38 23 43 -3 5 -2 7 3 6 7 -3 213 200 213 210 0 2
-5 0 -12 -4 -7 -4 -8 -3 -4 5 6 9 11 9 22 0 11 -9 14 -7 12 15 -1 14 -5 26 -8
26 -3 0 -47 -36 -96 -79 -85 -73 -110 -103 -105 -124 1 -5 -2 -6 -7 -3 -13 8
-85 -70 -77 -83 3 -6 11 -8 17 -5 7 4 8 2 4 -5 -6 -9 -11 -9 -21 -1 -10 8 -15
8 -20 0 -7 -11 -40 -5 -59 12 -51 43 -164 117 -174 113 -7 -3 -11 -1 -8 4 3 5
-10 19 -29 32 -35 24 -46 49 -22 49 6 0 -1 10 -16 21 -15 12 -39 43 -53 70
-13 28 -29 47 -34 44 -12 -8 -13 -55 -1 -55 4 0 6 -11 3 -25 -2 -14 -6 -25 -9
-25 -7 0 -47 22 -53 29 -3 3 -27 21 -53 39 -41 29 -50 32 -65 20 -15 -12 -16
-11 -4 4 12 14 11 19 -7 30 -29 18 -27 26 21 93 23 32 36 55 30 51 -7 -4 -12
-1 -12 9 0 9 5 13 10 10 6 -4 9 -3 8 2 -2 4 5 19 15 33 9 13 17 19 17 12 0
-21 14 -13 43 26 l29 37 -31 -32 c-16 -18 -32 -29 -35 -24 -6 9 68 84 75 77 3
-3 5 5 6 17 2 17 -14 5 -68 -53 -99 -106 -151 -182 -118 -173 13 4 11 -14 -2
-23 -6 -3 -15 -1 -19 5 -5 9 -10 8 -20 -4 -17 -21 -27 -19 -62 10 -16 14 -34
23 -39 19 -5 -3 -9 -1 -9 5 0 5 -31 32 -70 60 -38 28 -70 47 -70 41 0 -5 -5
-10 -12 -10 -6 0 -8 3 -5 6 17 17 -59 83 -86 76 -5 -1 -6 2 -3 7 4 5 -12 22
-34 38 -31 21 -40 33 -37 51 4 18 2 20 -10 11 -10 -9 -18 -8 -32 5 -24 22 -35
60 -15 52 8 -3 14 1 14 9 0 25 -17 25 -38 0 -12 -14 -27 -25 -33 -25 -5 0 -7
-4 -4 -10 8 -13 -1 -13 -28 1 -20 9 -20 9 -5 -4 15 -12 10 -24 -67 -141 -70
-106 -83 -131 -74 -147 6 -12 6 -19 0 -19 -5 0 -11 5 -13 10 -4 12 -51 -58
-99 -147 l-34 -63 -34 35 -35 34 22 43 c45 87 95 168 178 293 19 28 34 58 34
68 0 10 4 16 9 13 8 -5 61 65 61 81 0 13 -38 -34 -45 -57 -5 -16 -9 -19 -15
-10 -5 8 -12 1 -21 -23 -7 -20 -17 -33 -22 -30 -6 3 -7 1 -3 -5 4 -6 -9 -34
-29 -62 -19 -27 -35 -53 -35 -57 0 -5 -13 -27 -29 -50 -23 -34 -30 -39 -35
-27 -4 9 -4 19 -1 22 3 3 5 -1 5 -9 0 -12 58 91 89 158 6 12 24 41 41 64 16
23 30 51 30 63 -1 16 -5 12 -16 -14 -8 -19 -25 -48 -38 -65 -61 -82 -176 -277
-256 -434 -178 -352 -317 -840 -351 -1236 -5 -66 -12 -148 -15 -182 -5 -62
-17 -79 -49 -67 -42 16 11 467 91 784 92 364 229 702 406 1000 24 42 42 82 40
89 -3 8 0 11 6 8 5 -4 15 -1 21 7 9 11 8 17 -3 29 -8 8 -12 17 -9 21 3 3 11
-2 18 -11 10 -14 19 -5 61 62 27 42 59 90 72 105 12 16 22 32 21 37 -1 4 -1
15 0 23 1 12 3 12 10 2 6 -9 17 -1 43 30 43 53 59 83 24 45 -14 -15 -26 -23
-26 -17 0 6 -5 8 -12 4 -8 -5 -9 -2 -5 9 9 25 4 21 -23 -15 -22 -31 -22 -32
-2 -14 14 12 22 14 22 7 0 -7 5 -9 12 -5 7 4 8 3 4 -5 -4 -6 -12 -9 -17 -6 -5
4 -9 -1 -9 -10 0 -9 -4 -14 -9 -11 -5 3 -14 -1 -21 -9 -7 -8 -16 -13 -20 -10
-4 2 -20 -15 -37 -38 -39 -55 -50 -78 -23 -47 16 18 20 20 16 7 -3 -11 -2 -16
4 -12 17 10 12 -2 -21 -50 -17 -25 -35 -43 -40 -40 -5 4 -6 0 -3 -8 6 -17 -12
-32 -21 -17 -9 14 14 52 27 44 7 -4 8 -2 4 5 -4 6 -2 18 4 26 7 8 9 15 4 15
-5 0 -46 -56 -91 -123 -335 -501 -550 -1150 -591 -1784 -9 -123 -16 -147 -52
-156 -18 -5 -20 0 -20 46 0 66 24 300 45 442 67 455 237 953 457 1333 28 49
45 89 42 100 -4 11 -3 13 3 5 6 -8 31 21 81 95 39 59 87 127 106 152 l33 45
-20 20 -20 20 12 -22 c9 -18 8 -28 -5 -48 -16 -24 -39 -25 -31 -2 2 7 0 22 -4
34 -5 14 -4 25 2 29 6 3 20 20 31 38 17 27 19 28 13 6 -6 -23 -4 -22 23 10 18
21 27 42 25 55 -4 17 -2 16 12 -5 11 -16 14 -18 10 -6 -3 10 2 29 10 42 22 35
5 29 -31 -10z m-14 -51 c-7 -9 -15 -13 -17 -11 -7 7 7 26 19 26 6 0 6 -6 -2
-15z m-94 -131 c-4 -9 -1 -24 6 -32 10 -12 10 -14 1 -8 -9 5 -12 0 -10 -16 1
-14 -3 -22 -11 -20 -7 1 -12 -3 -11 -10 3 -14 -32 -78 -42 -78 -13 0 -27 47
-18 61 7 11 9 11 9 1 0 -7 4 -11 9 -8 5 4 12 0 14 -6 3 -7 6 -3 6 9 1 12 6 25
12 28 6 4 8 13 5 20 -2 7 1 18 7 24 9 9 7 11 -8 5 -18 -6 -17 -4 4 19 28 31
36 34 27 11z m150 -62 c-14 -14 -29 -22 -33 -18 -4 4 1 14 12 23 11 8 19 18
18 23 -2 5 4 7 13 3 13 -5 12 -10 -10 -31z m-202 -6 c-3 -9 -10 -16 -15 -16
-5 0 -4 9 3 20 14 22 21 20 12 -4z m-38 -118 c-1 -13 -6 -22 -9 -20 -7 2 -7
10 0 30 8 20 13 14 9 -10z m-73 -45 c-4 -11 -3 -14 5 -9 7 4 12 3 12 -3 0 -5
-4 -12 -9 -15 -11 -7 -23 22 -15 35 9 15 14 10 7 -8z m557 -9 c0 -8 4 -13 8
-10 21 12 6 -26 -17 -46 -21 -19 -23 -19 -9 -3 14 17 15 27 8 50 l-10 30 4
-30 c3 -20 -2 -37 -15 -51 -11 -12 -22 -34 -25 -50 -5 -29 -23 -58 -31 -50 -3
2 1 15 8 28 19 37 2 16 -42 -52 -23 -36 -34 -58 -24 -50 16 14 17 13 10 -10
-6 -21 -3 -20 19 9 31 42 33 51 6 26 -22 -20 -27 -9 -7 16 7 9 17 14 23 12 6
-2 30 21 53 51 60 78 64 80 95 55 32 -25 35 -15 4 12 -20 18 -20 19 -3 10 11
-5 29 -19 40 -32 11 -12 14 -19 8 -15 -24 14 -13 0 18 -23 25 -19 33 -20 47
-10 14 11 15 11 5 -1 -9 -10 -10 -17 -2 -27 14 -16 43 -18 33 -1 -4 7 -3 8 5
4 6 -4 9 -11 6 -16 -3 -4 15 -24 39 -43 33 -28 46 -33 55 -24 10 9 11 8 6 -4
-4 -12 4 -24 27 -40 18 -13 48 -37 67 -55 l34 -31 -30 -44 c-31 -47 -44 -71
-133 -246 -31 -62 -59 -110 -62 -108 -3 3 -24 -2 -47 -11 -40 -16 -43 -16 -64
3 -42 36 -127 66 -127 45 0 -23 91 -69 111 -56 13 8 11 -10 -2 -23 -14 -14 -3
-49 18 -57 11 -4 28 5 50 25 18 18 35 30 38 27 6 -5 -58 -216 -75 -248 -7 -12
-21 -20 -38 -20 -102 -1 -287 -22 -338 -38 -115 -36 -189 -105 -214 -201 -16
-61 2 -128 56 -207 24 -35 44 -67 44 -69 0 -3 -25 -35 -56 -72 -62 -73 -97
-141 -115 -220 -12 -53 -12 -53 -51 -53 -37 0 -38 1 -38 38 0 87 21 323 36
402 48 261 149 611 234 812 17 40 28 79 25 87 -3 8 -3 12 1 8 4 -4 12 1 19 10
11 15 16 14 58 -10 50 -30 65 -46 50 -56 -16 -11 -8 -36 14 -39 15 -2 27 5 39
23 17 26 17 28 -7 46 -13 11 -45 32 -71 47 -27 15 -48 33 -48 40 0 7 9 31 20
53 12 22 18 45 14 51 -4 6 -3 8 3 5 5 -3 25 22 45 56 22 38 32 65 26 68 -6 4
-7 13 -3 20 4 8 -3 3 -14 -11 -12 -14 -45 -73 -74 -131 -31 -63 -57 -104 -65
-101 -17 5 -15 22 8 67 11 22 18 46 15 53 -3 7 0 10 5 7 6 -4 13 7 16 24 4 17
11 28 16 25 6 -4 6 1 0 13 -8 14 -6 24 10 43 11 14 17 20 14 13 -4 -6 -2 -14
2 -17 5 -3 19 13 31 35 17 29 20 43 12 53 -11 14 -5 26 13 26 6 0 5 -4 -3 -9
-9 -6 -10 -11 -2 -15 7 -5 21 13 36 46 14 29 25 49 25 44 0 -5 12 9 28 31 68
101 102 130 102 87z m-80 -36 c-13 -13 -19 -16 -15 -8 14 25 28 41 32 36 3 -3
-5 -15 -17 -28z m-32 -48 c-7 -10 -14 -18 -15 -16 -6 6 9 36 18 36 5 0 4 -9
-3 -20z m-500 -80 c-7 -10 -14 -17 -17 -15 -4 4 18 35 25 35 2 0 -1 -9 -8 -20z
m142 -5 c0 -3 -9 -15 -20 -27 -22 -24 -26 -18 -8 12 12 19 28 27 28 15z m747
-40 c15 -13 25 -26 23 -29 -3 -2 -18 9 -34 25 -36 35 -26 39 11 4z m5701 -17
c-7 -12 -14 -25 -16 -28 -4 -6 -22 22 -22 35 0 6 4 4 9 -4 7 -11 11 -10 22 7
18 28 24 20 7 -10z m-6501 -38 c-12 -17 -16 -18 -20 -6 -4 9 -1 15 6 13 7 -1
11 9 10 28 -1 28 -1 28 9 8 8 -16 7 -27 -5 -43z m1085 4 c-9 -12 -19 -20 -21
-18 -2 2 1 10 7 17 7 8 10 16 7 19 -3 2 1 5 9 5 12 0 11 -5 -2 -23z m-1115
-64 c-12 -18 -15 -19 -21 -5 -3 9 -2 13 4 10 6 -3 13 1 16 10 4 9 9 14 11 11
3 -3 -2 -14 -10 -26z m1007 -22 c-5 -8 -22 1 -51 29 -10 9 -10 12 -1 15 15 5
59 -32 52 -44z m-653 -1 c-10 -20 -21 -34 -24 -31 -3 3 4 21 15 40 27 45 33
38 9 -9z m709 23 c0 -5 -2 -10 -4 -10 -3 0 -8 5 -11 10 -3 6 -1 10 4 10 6 0
11 -4 11 -10z m5528 -25 c-3 -3 -9 2 -12 12 -6 14 -5 15 5 6 7 -7 10 -15 7
-18z m29 -32 c-3 -10 -5 -4 -5 12 0 17 2 24 5 18 2 -7 2 -21 0 -30z m-297 13
c0 -8 -4 -17 -9 -20 -10 -7 -23 19 -14 28 11 11 23 6 23 -8z m-5305 -6 c-3 -5
-1 -10 5 -10 14 0 88 -50 156 -107 28 -23 54 -40 56 -37 3 2 5 -10 4 -28 0
-29 3 -33 34 -39 21 -5 45 -20 62 -41 15 -18 28 -28 28 -23 1 6 6 1 11 -10 7
-15 8 -10 6 22 -3 43 -2 44 45 11 16 -11 32 -17 37 -13 5 3 13 0 17 -6 5 -8 3
-9 -6 -4 -9 5 -11 4 -6 -3 4 -7 14 -12 22 -12 8 0 14 -5 14 -11 0 -5 5 -7 10
-4 6 3 10 1 10 -4 0 -6 17 -22 38 -35 82 -55 80 -48 40 -113 -19 -32 -51 -86
-69 -120 -23 -42 -39 -61 -48 -58 -8 3 -68 37 -133 76 -101 60 -120 75 -125
100 -3 16 -10 32 -16 36 -6 4 -8 0 -4 -9 11 -30 -53 -2 -190 83 -33 21 -56 19
-47 -4 2 -7 45 -37 94 -67 49 -30 90 -60 90 -65 0 -6 -12 -29 -27 -52 -18 -29
-31 -39 -42 -35 -15 6 -38 18 -190 106 -83 48 -83 47 -16 186 33 67 81 154
107 193 37 58 44 74 32 80 -13 7 -11 27 2 27 3 0 2 -4 -1 -10z m5465 -31 c0
-6 -4 -7 -10 -4 -5 3 -10 11 -10 16 0 6 5 7 10 4 6 -3 10 -11 10 -16z m-5478
-8 c8 11 9 11 6 1 -4 -16 -22 -18 -24 -2 -2 7 -1 6 3 -1 4 -8 8 -7 15 2z
m5335 -5 c-3 -8 0 -20 8 -26 7 -6 16 -22 19 -36 4 -16 11 -22 19 -17 7 4 5 -2
-3 -12 -14 -17 -13 -18 2 -13 10 4 19 1 22 -8 3 -9 1 -12 -4 -9 -15 9 -13 2
16 -49 15 -26 24 -50 20 -53 -3 -4 -6 -1 -6 6 0 7 -4 9 -10 6 -5 -3 -10 0 -10
7 0 7 -16 44 -35 82 -19 37 -32 73 -28 79 3 5 1 7 -5 3 -6 -3 -13 -2 -17 4 -7
11 3 50 12 50 3 0 3 -6 0 -14z m270 -11 c0 -8 -4 -12 -9 -9 -5 3 -6 10 -3 15
9 13 12 11 12 -6z m-6477 -37 c0 -5 -7 -3 -15 6 -8 8 -15 18 -15 22 0 3 7 1
15 -6 8 -7 15 -17 15 -22z m151 -5 c-12 -20 -14 -14 -5 12 4 9 9 14 11 11 3
-2 0 -13 -6 -23z m929 -3 c0 -6 -9 -2 -20 7 -11 10 -20 19 -20 21 0 1 9 -2 20
-8 11 -6 20 -15 20 -20z m-1074 1 c29 24 22 -17 -21 -118 -50 -117 -119 -294
-133 -346 -6 -18 -26 -86 -45 -153 -68 -228 -109 -451 -128 -684 -6 -85 -13
-156 -14 -158 -7 -8 -75 29 -75 41 0 39 21 281 31 347 41 292 144 665 254 919
78 181 74 173 97 156 15 -10 25 -11 34 -4z m818 1 c3 -5 -1 -9 -9 -9 -8 0 -12
4 -9 9 3 4 7 8 9 8 2 0 6 -4 9 -8z m5682 -26 c0 -15 -5 -21 -10 -16 -5 5 -6
16 -3 24 9 23 15 19 13 -8z m-1469 1 c0 -8 -6 -14 -14 -14 -9 0 -10 4 -2 14 6
7 12 13 14 13 1 0 2 -6 2 -13z m1075 -9 c-7 -7 -12 -8 -12 -2 0 14 12 26 19
19 2 -3 -1 -11 -7 -17z m-1758 -20 c-5 -8 -2 -9 12 -4 10 4 16 4 12 1 -3 -3
26 -37 64 -75 39 -40 66 -75 62 -81 -4 -7 -13 1 -22 20 -8 17 -16 30 -19 28
-6 -6 -120 107 -116 116 2 4 6 7 9 7 3 0 2 -5 -2 -12z m1746 -39 c7 -16 15
-27 19 -25 4 3 7 -3 8 -12 1 -9 18 -57 38 -107 65 -159 159 -460 148 -477 -14
-25 -31 2 -52 85 -27 103 -80 256 -147 424 -25 62 -47 121 -49 132 -6 30 21
15 35 -20z m-1123 -1 c-3 -8 -6 -5 -6 6 -1 11 2 17 5 13 3 -3 4 -12 1 -19z
m1141 -3 c-3 -3 -9 2 -12 12 -6 14 -5 15 5 6 7 -7 10 -15 7 -18z m-6048 13 c0
-3 -17 -47 -101 -273 -16 -44 -48 -141 -70 -215 -40 -133 -52 -160 -65 -147
-10 10 12 105 58 242 21 66 40 128 41 137 0 9 5 14 9 12 4 -3 8 0 8 7 0 14 39
116 73 192 12 26 28 47 34 47 7 0 13 -1 13 -2z m6353 -56 c-4 -10 -2 -13 5 -8
12 7 20 -17 21 -64 0 -19 -2 -21 -9 -10 -5 8 -7 26 -4 40 4 17 3 21 -4 12 -7
-11 -11 -7 -17 15 -5 15 -8 31 -7 36 1 4 -2 7 -7 7 -5 0 -12 8 -15 17 -5 13
-1 12 18 -6 15 -14 22 -29 19 -39z m-1563 23 c-7 -8 -18 -15 -24 -15 -6 0 -2
7 8 15 25 19 32 19 16 0z m73 -20 c-3 -9 -8 -14 -10 -11 -3 3 -2 9 2 15 9 16
15 13 8 -4z m-138 -25 c-3 -5 -12 -10 -18 -10 -7 0 -6 4 3 10 19 12 23 12 15
0z m1541 -65 c17 -41 17 -45 4 -45 -5 0 -10 9 -10 20 0 11 -4 20 -10 20 -5 0
-10 9 -10 20 0 30 9 24 26 -15z m-4838 -45 c5 0 13 -7 16 -16 4 -11 -2 -10
-24 6 -17 12 -30 27 -30 33 0 7 7 4 14 -5 7 -10 18 -18 24 -18z m4986 -5 c-4
-8 -2 -15 2 -15 5 0 10 -17 11 -38 l1 -37 -17 45 c-12 31 -14 47 -7 52 15 11
16 10 10 -7z m-5682 -171 c73 -42 139 -82 147 -89 16 -15 28 -5 80 67 19 27
39 44 45 41 6 -4 43 -27 81 -52 39 -26 92 -57 117 -71 94 -49 88 -50 -313 -50
l-370 0 6 23 c9 31 70 207 72 207 0 0 61 -34 135 -76z m4678 65 c0 -5 9 -29
19 -52 24 -52 61 -149 61 -159 0 -5 -171 -8 -381 -8 -276 0 -380 3 -377 11 4
12 224 143 257 154 14 4 26 -6 50 -44 35 -54 56 -68 78 -49 17 14 275 156 286
157 4 1 7 -4 7 -10z m-5083 -384 c-56 -57 -145 -152 -197 -209 -52 -57 -100
-105 -107 -105 -19 -2 -81 92 -94 141 -18 67 0 120 61 179 71 69 163 95 347
98 l93 1 -103 -105z m5570 81 c28 -9 74 -34 101 -56 103 -81 108 -205 14 -319
l-28 -33 -89 103 c-49 57 -133 152 -187 210 -54 58 -98 110 -98 114 0 13 232
-2 287 -19z m-6137 -105 c0 -10 -11 -72 -24 -138 -29 -139 -56 -360 -56 -453
0 -68 -10 -97 -29 -86 -12 8 -11 26 15 291 13 128 56 374 71 398 8 14 23 7 23
-12z m6536 -149 c20 -108 44 -296 57 -459 4 -54 -5 -85 -21 -68 -5 6 -14 78
-20 160 -12 153 -41 353 -68 459 -13 48 -13 60 -2 67 17 11 25 -11 54 -159z
m-6656 -1007 c47 -312 178 -752 282 -947 l31 -59 -28 -29 c-16 -17 -32 -30
-35 -30 -10 0 -96 187 -145 315 -118 312 -199 693 -212 996 l-6 146 32 11 c22
8 31 18 32 34 1 13 7 -49 15 -137 7 -88 23 -223 34 -300z m-336 424 c28 -13
26 -3 46 -259 28 -363 131 -775 279 -1114 133 -305 333 -631 545 -886 91 -110
336 -356 451 -452 152 -127 460 -340 575 -398 25 -13 63 -35 85 -49 22 -15 54
-31 70 -38 17 -6 89 -38 160 -71 350 -162 825 -280 1235 -306 52 -4 121 -9
153 -12 l57 -6 0 -34 c0 -41 15 -39 -213 -19 -420 37 -762 114 -1107 250 -93
36 -329 151 -460 223 -121 66 -404 259 -533 362 -146 117 -371 337 -502 490
-421 492 -712 1112 -819 1745 -31 183 -67 585 -53 585 3 0 17 -5 31 -11z m516
-64 c37 -99 51 -122 114 -192 31 -33 56 -64 56 -68 0 -4 -18 -28 -41 -52 -103
-112 -104 -248 -1 -333 67 -55 114 -64 314 -57 l178 6 10 -42 c6 -23 24 -89
40 -147 39 -140 44 -170 31 -170 -6 0 -13 11 -17 24 -7 29 -21 36 -51 25 -35
-13 -30 -53 10 -78 17 -11 40 -26 49 -33 15 -10 21 -10 34 4 15 15 20 9 62
-75 25 -51 79 -148 120 -216 62 -103 73 -126 61 -135 -8 -6 -75 -56 -149 -111
-131 -97 -156 -115 -226 -163 l-34 -22 -60 80 c-107 145 -248 386 -234 400 31
29 300 179 338 189 47 12 57 28 36 61 -8 13 -12 13 -32 1 -13 -8 -63 -37 -111
-64 -78 -44 -92 -48 -113 -38 -32 14 -74 14 -74 -1 0 -6 7 -19 16 -29 20 -22
14 -32 -41 -63 l-45 -25 -19 37 c-163 320 -298 842 -317 1230 l-7 133 39 -3
c38 -3 39 -4 64 -73z m6450 3 c0 -269 -58 -586 -170 -931 -46 -141 -138 -369
-158 -389 -4 -4 -31 6 -60 23 l-52 30 15 29 c14 28 14 31 -1 37 -9 3 -30 1
-47 -5 -33 -12 -52 -5 -179 70 -38 22 -75 38 -83 34 -24 -9 -18 -47 8 -54 71
-18 365 -196 366 -221 2 -29 -181 -329 -251 -413 l-39 -48 -27 18 c-21 13
-383 274 -401 288 -2 2 18 36 45 76 57 85 174 314 174 342 0 18 1 18 18 3 24
-22 23 -22 77 14 53 36 61 49 45 78 -15 29 -44 26 -58 -4 -12 -26 -32 -34 -32
-12 0 7 17 69 39 137 21 69 41 141 45 161 l6 35 203 0 c189 -1 204 0 242 21
150 82 174 230 60 364 -25 29 -45 55 -45 59 0 3 29 38 65 79 56 64 105 153
105 191 0 5 4 20 10 34 8 21 16 26 45 26 l35 0 0 -72z m-6596 30 c2 -18 12
-114 21 -213 9 -99 29 -245 44 -323 26 -131 27 -180 3 -135 -12 23 -58 261
-72 373 -14 113 -29 313 -23 323 10 17 22 5 27 -25z m6676 -32 c0 -146 -72
-622 -99 -649 -23 -23 -22 6 3 125 30 142 56 345 56 434 0 96 10 153 26 147 9
-3 14 -22 14 -57z m117 -95 c-23 -419 -129 -850 -302 -1226 -70 -153 -85 -181
-148 -286 -89 -148 -163 -257 -207 -305 l-37 -40 -27 21 c-14 11 -26 25 -26
31 0 5 19 34 41 64 58 76 157 230 208 323 43 78 58 89 81 62 11 -13 40 -21 40
-11 0 2 2 11 5 18 3 8 -5 26 -19 41 -29 31 -28 35 38 183 157 356 275 870 276
1200 l0 81 41 -20 42 -21 -6 -115z m250 17 c-17 -412 -135 -901 -314 -1306
-112 -255 -284 -545 -432 -732 -555 -700 -1300 -1183 -2121 -1374 -212 -49
-479 -86 -732 -101 l-108 -7 0 36 c0 20 3 36 8 36 53 1 324 24 414 35 372 47
730 144 1023 277 61 27 139 60 175 73 36 13 71 33 79 44 7 12 18 21 24 21 14
0 214 121 327 198 226 155 338 250 555 467 161 161 313 334 342 390 9 17 21
35 28 40 42 36 198 290 288 470 198 397 310 776 367 1241 11 89 20 193 20 231
0 81 10 98 54 102 5 1 7 -59 3 -141z m-7270 114 c7 -5 16 -62 23 -152 33 -441
144 -880 307 -1220 31 -63 57 -119 57 -125 1 -5 11 -25 21 -43 97 -166 181
-304 215 -353 22 -32 40 -61 40 -65 0 -10 -44 -43 -57 -44 -7 0 -13 8 -13 18
0 18 -16 46 -119 211 -273 434 -466 1018 -511 1546 -15 184 -14 235 8 235 9 0
22 -4 29 -8z m7146 -87 c-15 -568 -233 -1260 -552 -1747 -61 -95 -82 -134 -79
-154 2 -16 -2 -29 -9 -31 -7 -3 -13 2 -13 9 0 8 -11 25 -25 38 -14 13 -25 26
-25 29 0 4 23 38 51 76 96 132 252 421 334 620 83 199 169 500 204 710 21 122
51 415 51 490 0 49 6 57 40 53 25 -3 25 -3 23 -93z m-541 -350 c63 -119 -9
-234 -161 -260 -24 -4 -100 -4 -169 0 l-126 7 29 21 c43 30 220 205 285 281
l55 65 33 -37 c18 -20 42 -55 54 -77z m-5987 73 c65 -78 221 -233 276 -273
l60 -44 -38 -8 c-21 -4 -94 -8 -163 -8 -111 0 -130 3 -172 23 -83 41 -119 106
-104 186 7 35 88 156 105 156 5 0 21 -15 36 -32z m1115 -365 c0 -9 -20 -21
-152 -95 -85 -47 -118 -58 -118 -38 0 6 -7 10 -15 10 -8 0 -15 -8 -15 -18 0
-27 -22 -44 -161 -121 l-124 -69 -22 47 c-21 45 -64 185 -76 248 l-6 33 317 3
c174 1 329 3 345 5 15 1 27 -1 27 -5z m4314 -40 c-10 -56 -72 -246 -87 -267
-12 -16 -20 -14 -124 42 -151 82 -163 91 -170 124 -6 31 -18 36 -31 12 -8 -14
-20 -10 -98 29 -49 24 -109 56 -134 71 l-45 26 348 0 348 0 -7 -37z m-589 -68
c50 -27 102 -55 118 -62 15 -8 27 -17 27 -19 0 -4 -52 -85 -66 -103 -5 -5
-138 60 -215 105 l-66 39 25 66 26 67 31 -22 c16 -13 71 -45 120 -71z m1325
71 c0 -70 -144 -478 -203 -575 -39 -65 -28 -12 27 126 64 161 116 310 141 406
18 67 35 88 35 43z m-6436 -3 c85 -285 110 -359 173 -496 46 -101 53 -143 15
-89 -39 53 -113 241 -176 442 -47 149 -49 160 -32 160 8 0 17 -8 20 -17z
m1469 -51 l25 -62 -62 -34 c-33 -18 -96 -51 -138 -73 -88 -45 -87 -45 -127 34
l-21 43 97 49 c54 28 121 63 148 79 28 17 51 29 51 28 1 0 13 -29 27 -64z
m111 -226 c49 -82 63 -113 55 -123 -16 -18 -240 -166 -245 -161 -2 3 2 26 10
51 8 26 10 49 6 52 -9 5 -80 -72 -80 -87 0 -4 -18 -8 -40 -8 -36 0 -40 -3 -40
-24 0 -14 5 -28 10 -31 6 -4 8 -10 5 -15 -8 -13 -192 -140 -203 -140 -29 0
-260 416 -241 434 12 11 277 146 286 146 15 0 66 -88 58 -100 -3 -5 -44 -31
-90 -57 -58 -32 -85 -53 -85 -65 0 -10 3 -18 8 -18 4 0 49 23 101 50 73 39 97
48 108 39 15 -13 21 -10 37 22 11 21 250 153 267 147 5 -2 38 -52 73 -112z
m3454 48 c58 -31 112 -68 124 -84 16 -23 27 -28 44 -24 17 4 52 -9 118 -45 71
-38 95 -47 99 -37 7 18 -10 32 -110 91 l-82 48 19 36 c26 49 47 74 58 70 43
-18 282 -156 282 -164 0 -42 -213 -424 -237 -425 -14 0 -184 113 -202 134 -10
11 -9 19 1 36 11 17 11 22 -2 30 -8 5 -26 10 -39 10 -23 0 -47 21 -78 68 -9
12 -22 22 -29 22 -8 0 -14 -1 -14 -2 0 -2 7 -27 14 -56 8 -29 11 -52 8 -50
-21 9 -251 169 -257 177 -3 6 11 37 33 68 21 32 52 82 68 111 35 64 35 64 182
-14z m-3330 -236 c53 -66 209 -222 277 -278 105 -86 245 -175 383 -242 67 -33
122 -64 122 -68 0 -15 -46 -115 -206 -448 l-83 -172 -55 27 c-31 15 -54 32
-52 38 23 52 68 208 79 272 12 72 19 87 56 130 53 59 64 80 51 88 -6 4 -34
-12 -62 -35 -34 -26 -57 -38 -67 -34 -9 4 -25 7 -36 8 -21 1 -25 -19 -11 -61
6 -18 -2 -29 -47 -65 -30 -24 -60 -51 -66 -61 -21 -32 16 -31 66 2 25 17 50
31 55 31 23 0 -42 -247 -68 -257 -21 -8 -307 157 -420 243 -156 117 -377 332
-484 468 l-54 69 29 21 c64 47 168 116 176 116 5 0 13 -18 19 -40 6 -22 14
-40 18 -40 5 0 18 23 29 50 18 41 26 50 46 50 20 0 26 6 29 27 2 22 25 43 123
110 66 45 121 82 123 83 2 0 15 -15 30 -32z m3137 -54 c83 -57 127 -95 131
-110 3 -13 18 -27 34 -33 20 -6 34 -23 49 -55 11 -25 24 -46 30 -46 5 0 13 20
17 45 3 25 8 45 10 45 8 0 181 -119 191 -132 16 -19 3 -38 -120 -176 -211
-236 -413 -397 -694 -551 -151 -82 -145 -82 -171 -19 -33 82 -69 228 -56 228
3 0 24 -13 47 -28 66 -45 67 -45 67 -22 0 12 -21 41 -51 70 -47 45 -50 51 -42
77 6 15 8 34 6 41 -6 15 -35 16 -50 1 -13 -13 -25 -6 -90 47 -28 22 -34 24
-39 11 -4 -10 11 -38 40 -75 25 -32 46 -65 46 -73 0 -51 77 -296 102 -327 6
-7 9 -14 7 -15 -13 -10 -99 -57 -104 -57 -7 0 -294 586 -301 617 -4 16 -2 23
8 23 25 0 238 109 324 165 161 106 344 266 435 380 24 30 45 55 46 55 2 0 59
-39 128 -86z m-4567 -178 c30 -63 166 -280 219 -350 51 -67 58 -82 44 -90 -16
-10 -152 187 -255 369 -60 107 -63 115 -43 115 7 0 23 -20 35 -44z m5902 27
c0 -26 -76 -161 -163 -293 -98 -148 -132 -189 -147 -174 -8 8 2 26 39 69 58
68 241 369 241 396 0 11 7 19 15 19 8 0 15 -8 15 -17z m-5951 -93 c48 -94 160
-268 234 -363 l30 -39 -30 -30 -30 -30 -35 44 c-76 93 -289 441 -277 452 14
12 47 25 61 26 11 0 28 -22 47 -60z m882 -157 c98 -118 333 -351 434 -428 127
-98 311 -211 480 -295 80 -39 145 -76 145 -81 0 -11 -20 -48 -39 -71 -8 -10
-27 -18 -43 -18 -33 0 -33 0 -12 -48 15 -36 14 -39 -26 -147 -59 -156 -52
-151 -139 -114 -39 16 -87 39 -106 50 l-35 21 20 36 c11 21 29 53 40 72 11 19
20 42 20 51 0 9 16 40 35 69 31 46 46 100 28 100 -3 0 -22 -18 -41 -41 -20
-23 -55 -50 -79 -60 -47 -20 -53 -33 -23 -51 11 -7 20 -18 20 -25 0 -13 -40
-134 -46 -142 -8 -9 -282 150 -414 241 -133 93 -309 232 -336 267 -8 10 -9 23
-3 40 14 37 -5 50 -30 20 l-20 -24 -45 45 c-84 83 -268 300 -264 311 3 10 397
298 409 299 4 0 35 -35 70 -77z m4359 11 c47 -33 140 -99 207 -148 l122 -90
-36 -45 c-63 -78 -234 -261 -266 -283 l-30 -21 -18 21 c-32 41 -55 19 -25 -24
14 -19 12 -24 -22 -57 -138 -136 -458 -354 -690 -471 -39 -20 -54 -23 -57 -14
-25 68 -45 134 -45 148 0 10 9 20 20 23 33 8 23 37 -17 54 -21 8 -58 34 -83
57 -59 54 -64 32 -16 -60 20 -37 36 -74 36 -83 1 -9 21 -47 45 -86 l43 -70
-96 -47 c-53 -26 -105 -47 -116 -45 -13 1 -30 30 -62 107 -45 106 -47 120 -28
207 6 32 6 32 -27 27 -28 -4 -37 0 -51 19 -9 14 -20 35 -23 49 -6 23 3 29 167
110 185 92 326 178 458 278 106 81 323 292 425 414 44 52 85 94 90 92 6 -2 48
-30 95 -62z m-1591 -224 l21 -48 -21 -24 c-24 -26 -171 -352 -231 -508 -95
-252 -155 -330 -320 -415 -53 -27 -100 -46 -105 -42 -4 5 -8 58 -7 117 1 136
8 149 140 251 49 37 184 187 184 203 0 3 -34 10 -75 17 l-75 12 68 66 c70 68
182 209 182 229 0 23 -38 12 -63 -18 -30 -35 -37 -37 -37 -12 0 30 -55 97 -95
116 -20 10 -35 19 -33 22 2 2 71 17 154 34 82 16 176 38 209 48 36 12 65 16
71 10 7 -5 21 -31 33 -58z m-1176 25 c77 -19 147 -35 157 -35 33 0 120 -21
120 -30 0 -4 -13 -10 -29 -13 -38 -8 -100 -70 -108 -108 l-6 -30 -37 41 c-37
41 -54 48 -65 30 -9 -15 121 -197 187 -262 l59 -56 -28 -6 c-16 -3 -45 -8 -65
-12 -21 -3 -38 -8 -38 -11 0 -7 58 -82 94 -122 17 -18 60 -57 96 -86 36 -28
78 -71 95 -94 27 -40 29 -50 33 -158 l5 -115 -24 7 c-48 15 -145 68 -189 104
-98 79 -120 114 -213 346 -95 235 -195 464 -223 513 l-25 42 20 45 c11 25 26
45 33 45 7 0 75 -16 151 -35z m-2030 -162 c51 -60 126 -142 166 -183 l73 -74
-22 -18 c-24 -20 -17 -45 22 -70 13 -9 63 -49 111 -91 88 -75 305 -230 428
-305 96 -58 280 -152 388 -198 l93 -39 -6 -42 c-4 -34 -3 -43 10 -43 8 0 23
13 32 30 9 16 20 30 23 30 4 0 47 -15 96 -34 221 -86 621 -167 908 -185 66 -5
133 -13 149 -20 l30 -12 -32 -31 c-31 -31 -32 -32 -124 -29 -319 8 -863 131
-1153 261 -160 72 -201 92 -215 105 -15 14 -18 12 -28 -10 -6 -14 -19 -25 -28
-25 -13 0 -15 7 -9 40 5 31 4 40 -7 40 -23 0 -254 136 -386 228 -232 161 -548
452 -685 630 l-47 61 37 25 37 25 15 -22 c34 -50 163 -197 230 -261 53 -51 75
-66 83 -58 8 8 -12 37 -78 109 -164 179 -236 273 -208 273 1 0 45 -48 97 -107z
m2436 101 l61 -7 0 -163 c0 -90 -4 -164 -8 -164 -4 0 -13 5 -20 12 -10 10 -17
8 -34 -9 -18 -18 -19 -24 -8 -37 7 -9 25 -16 41 -16 26 0 29 -3 29 -35 0 -19
-3 -35 -6 -35 -32 0 -246 154 -258 186 -5 13 -3 13 16 -1 31 -21 97 -19 136 5
88 54 72 190 -27 236 -71 33 -49 41 78 28z m246 -17 c-11 -7 -34 -26 -52 -43
-30 -29 -33 -38 -33 -89 0 -31 4 -65 10 -75 26 -49 127 -76 183 -50 15 7 12 3
-7 -12 -16 -13 -50 -41 -75 -62 -53 -45 -145 -106 -161 -106 -11 0 -13 14 -4
46 3 12 18 24 37 30 41 12 41 36 0 49 l-33 9 0 158 0 158 78 -1 c64 0 74 -2
57 -12z m2495 2 c0 -16 -66 -94 -204 -241 -99 -106 -122 -126 -134 -116 -12
11 -11 14 8 27 28 19 300 319 300 332 0 5 7 9 15 9 8 0 15 -5 15 -11z m73 -46
c18 -10 34 -19 36 -20 9 -5 -138 -173 -259 -293 -242 -242 -504 -443 -778
-596 -73 -40 -83 -49 -77 -68 17 -55 17 -66 1 -66 -8 0 -22 14 -31 30 -9 17
-19 30 -23 30 -4 0 -54 -23 -112 -51 -134 -65 -223 -100 -374 -149 -294 -96
-696 -170 -923 -170 -93 0 -104 2 -130 24 -45 39 -22 52 105 61 59 4 195 20
304 35 285 42 474 87 672 160 48 17 90 27 104 24 16 -5 22 -2 22 9 0 10 19 22
53 33 66 21 372 172 457 226 179 112 297 196 414 295 152 128 382 352 450 441
27 34 51 62 53 62 3 0 19 -8 36 -17z m200 -13 c9 0 17 -4 17 -10 0 -5 -4 -10
-8 -10 -5 0 -53 -53 -108 -117 -213 -253 -504 -517 -779 -706 -120 -82 -313
-197 -331 -197 -9 0 -30 61 -22 64 22 8 139 76 233 135 231 147 393 279 626
511 130 129 251 264 262 292 5 11 7 11 15 -1 10 -14 28 2 18 17 -3 5 2 19 10
31 15 20 18 21 33 7 10 -9 25 -16 34 -16z m-3600 -65 c17 -39 52 -119 78 -178
44 -100 47 -111 34 -131 -15 -22 -14 -28 12 -175 l6 -33 -34 7 c-72 15 -343
112 -367 131 -2 1 28 67 66 146 39 78 82 170 97 203 33 76 53 107 67 103 6 -2
24 -35 41 -73z m942 33 c36 -43 33 -83 -7 -108 -43 -26 -81 -25 -112 3 -35 31
-39 57 -16 95 35 57 92 62 135 10z m487 0 c12 -24 62 -126 111 -227 70 -144
86 -185 76 -192 -38 -24 -385 -137 -393 -128 -2 2 3 46 10 98 12 80 12 96 0
110 -12 14 -7 30 36 126 78 174 118 255 128 255 5 0 20 -19 32 -42z m-3468
-111 c184 -214 436 -445 634 -583 l92 -65 -15 -30 c-19 -35 -10 -39 -145 65
-218 166 -507 440 -635 601 -30 38 -73 84 -95 101 -39 31 -39 31 -17 42 12 6
31 10 41 9 12 -1 71 -61 140 -140z m2551 118 c25 -24 34 -77 17 -101 -24 -37
-82 -43 -131 -13 -30 18 -33 23 -28 56 13 78 91 110 142 58z m2419 -329 c-20
-31 -53 -59 -209 -176 -177 -132 -241 -174 -260 -167 -24 10 -18 22 18 35 49
18 310 210 406 299 48 43 71 48 45 9z m-4451 -5 c55 -51 346 -267 413 -307 27
-16 9 -30 -20 -16 -72 33 -414 297 -439 338 -14 25 13 15 46 -15z m2100 -48
l67 -26 0 -89 0 -89 -47 40 c-27 22 -71 59 -100 83 -68 57 -99 96 -81 103 51
17 65 15 161 -22z m335 20 c13 -3 20 -9 15 -12 -4 -3 -25 -27 -46 -54 -21 -26
-65 -66 -98 -88 -33 -22 -65 -49 -72 -60 -6 -10 -15 -19 -19 -19 -9 0 -11 135
-2 166 12 47 147 88 222 67z m-715 -151 c79 -205 157 -301 313 -385 90 -48 75
-54 -26 -10 -143 63 -253 196 -309 374 -48 156 -35 169 22 21z m967 -30 c-53
-165 -156 -291 -290 -355 -114 -54 -147 -55 -45 0 162 86 264 215 326 413 21
66 24 71 27 42 2 -18 -6 -63 -18 -100z m-1303 17 c73 -27 137 -49 143 -49 26
0 -2 -43 -88 -132 -31 -32 -51 -61 -47 -67 3 -7 -6 -26 -22 -44 -15 -18 -46
-59 -68 -92 -22 -33 -41 -62 -43 -65 -3 -5 -190 56 -210 68 -15 10 -4 43 51
163 34 72 37 76 74 82 21 4 47 13 58 21 20 14 19 15 -9 45 -28 29 -28 31 -16
81 10 41 15 50 29 44 9 -3 75 -28 148 -55z m1813 -34 c0 -11 -9 -26 -20 -33
-35 -22 -25 -50 23 -62 23 -6 46 -12 51 -14 13 -3 115 -229 107 -238 -9 -10
-186 -68 -207 -68 -11 0 -33 22 -54 52 -19 29 -50 72 -68 96 -18 24 -31 49
-30 55 2 7 -16 30 -40 51 -52 47 -120 138 -107 144 6 2 78 27 160 55 l150 52
17 -35 c10 -19 18 -44 18 -55z m-1528 -52 c4 -2 24 -36 45 -76 77 -146 224
-261 368 -288 33 -7 66 -13 72 -15 18 -5 14 -141 -4 -160 -40 -40 -108 -41
-358 -8 -109 15 -142 27 -118 42 10 6 7 19 -11 52 -13 25 -26 66 -30 92 -4 28
-13 49 -23 52 -24 10 -26 2 -16 -69 9 -59 8 -65 -8 -65 -27 0 -167 28 -226 45
-63 18 -63 17 25 133 l56 73 50 -7 c28 -3 61 -10 74 -15 35 -14 42 -11 42 15
0 21 -6 25 -42 31 -71 10 -98 16 -98 22 0 2 15 23 33 46 18 23 44 59 58 80 23
36 26 37 64 31 22 -3 43 -8 47 -11z m1144 -10 c10 -16 39 -51 66 -79 46 -49
48 -52 26 -58 -13 -3 -47 -6 -75 -6 -46 0 -53 -3 -53 -20 0 -23 1 -23 101 -20
l75 2 68 -91 c37 -50 65 -95 62 -100 -6 -9 -178 -52 -265 -66 -37 -6 -43 -5
-38 8 3 9 9 43 13 76 5 50 4 61 -8 61 -14 0 -28 -35 -43 -106 -3 -18 -14 -39
-23 -47 -16 -14 -147 -32 -384 -53 -69 -6 -74 -9 -60 -32 8 -12 159 -5 346 18
79 10 98 8 80 -9 -9 -8 -161 -25 -339 -37 -89 -6 -90 -5 -116 23 -22 24 -26
38 -27 95 -1 66 -1 68 26 73 161 34 224 66 322 164 51 51 88 99 113 148 39 75
46 81 88 82 19 1 32 -7 45 -26z m-2221 -124 c61 -33 155 -80 210 -106 161 -73
165 -75 165 -84 0 -15 -13 -11 -119 36 -199 88 -381 187 -381 206 0 15 11 11
125 -52z m3330 42 c10 -17 -255 -160 -415 -225 -74 -30 -70 -30 -70 -13 0 7
30 26 68 41 82 36 303 146 357 180 46 28 52 29 60 17z m-3535 -176 c157 -92
151 -87 170 -142 13 -37 15 -54 7 -62 -19 -19 -37 -12 -37 13 0 31 -29 54
-179 141 -66 39 -121 74 -121 79 0 5 7 18 16 28 16 17 18 17 48 -1 17 -10 60
-35 96 -56z m793 -119 c130 -41 214 -63 370 -97 32 -7 57 -18 57 -25 0 -33
-586 129 -598 166 -3 9 1 11 12 7 9 -4 81 -27 159 -51z m2217 34 c0 -26 -606
-188 -627 -167 -11 12 -3 14 137 46 127 30 418 114 449 131 16 9 41 2 41 -10z
m345 -141 c-240 -125 -619 -245 -935 -295 -251 -39 -600 -68 -600 -49 0 24 34
65 53 65 91 1 338 23 453 40 339 52 617 133 954 278 l115 50 25 -21 26 -21
-91 -47z m-2976 27 c326 -152 745 -257 1159 -291 103 -9 196 -18 208 -20 21
-5 48 -48 37 -59 -19 -19 -351 11 -598 54 -286 49 -769 206 -923 300 -38 23
-51 48 -31 61 22 14 25 12 148 -45z"/>
<path d="M2256 7337 c3 -10 9 -15 12 -12 3 3 0 11 -7 18 -10 9 -11 8 -5 -6z"/>
<path d="M2197 7264 c6 -15 23 -19 23 -5 0 5 -7 11 -14 14 -10 4 -13 1 -9 -9z"/>
<path d="M2764 6865 c-3 -14 -1 -32 5 -39 10 -12 8 -13 -8 -9 -12 3 -27 0 -35
-6 -10 -9 -15 -8 -19 3 -4 10 -1 13 8 10 11 -5 12 -1 2 19 -6 14 -14 22 -17
18 -3 -5 -15 -11 -27 -15 -13 -4 -23 -13 -23 -20 0 -19 62 -47 76 -35 8 7 15
6 20 -2 4 -7 2 -15 -4 -17 -7 -2 -12 -14 -12 -28 0 -25 24 -36 81 -38 15 -1
25 -4 23 -8 -2 -4 0 -9 5 -12 5 -3 12 1 15 10 7 19 -19 48 -35 38 -8 -5 -9 -3
-4 5 4 8 -1 19 -15 28 -20 14 -21 17 -6 25 9 5 16 16 16 24 0 8 -5 12 -11 9
-6 -4 -10 -1 -8 6 7 54 -15 82 -27 34z m-76 -60 c-3 -3 -9 2 -12 12 -6 14 -5
15 5 6 7 -7 10 -15 7 -18z"/>
<path d="M2860 6686 c0 -8 5 -18 10 -21 6 -3 10 1 10 9 0 8 -4 18 -10 21 -5 3
-10 -1 -10 -9z"/>
<path d="M2567 6493 c-4 -3 -7 -19 -7 -34 0 -22 6 -30 26 -35 38 -10 61 17 46
51 -11 24 -49 35 -65 18z"/>
<path d="M2527 6307 c-28 -16 -46 -38 -67 -82 -17 -36 -40 -67 -55 -75 -34
-18 -31 -30 8 -30 39 0 55 16 82 78 19 44 66 92 90 92 20 0 65 22 65 32 0 17
-86 7 -123 -15z"/>
<path d="M2369 4260 c-34 -34 -32 -46 12 -55 19 -4 37 -18 49 -37 10 -17 39
-40 69 -53 l50 -24 7 35 c18 95 -29 164 -112 164 -37 0 -51 -5 -75 -30z"/>
<path d="M2863 3681 c-7 -11 -39 -32 -73 -48 -57 -26 -60 -30 -55 -58 20 -116
20 -107 -7 -96 -14 5 -31 6 -38 1 -19 -11 31 -42 72 -44 l33 -1 -3 54 c-3 51
-2 56 36 95 31 33 62 88 62 112 0 11 -17 1 -27 -15z"/>
<path d="M8134 4280 c-12 -4 -31 -21 -44 -37 -18 -23 -21 -37 -18 -80 3 -29 7
-56 11 -59 12 -13 103 38 119 67 11 19 28 32 48 35 44 9 47 24 11 56 -33 29
-82 36 -127 18z"/>
<path d="M7746 3684 c13 -52 21 -69 58 -109 29 -32 37 -47 36 -75 -3 -59 -2
-60 38 -60 47 0 67 13 58 36 -5 13 -9 15 -18 6 -36 -36 -52 21 -22 79 18 36 8
54 -36 64 -16 3 -49 25 -75 47 l-46 41 7 -29z"/>
<path d="M3836 3633 c-4 -10 1 -25 14 -37 18 -19 21 -19 36 -4 22 22 10 58
-21 58 -12 0 -26 -8 -29 -17z"/>
<path d="M3614 3526 c-28 -13 -60 -37 -71 -52 -48 -69 -53 -153 -12 -190 21
-19 22 -19 33 0 67 113 185 159 260 102 43 -33 48 -33 44 1 -5 44 -61 76 -123
71 -78 -7 -134 -39 -179 -103 -13 -18 -13 -15 -6 22 12 69 51 107 124 123 57
12 106 2 160 -35 l36 -24 0 23 c0 29 -25 52 -79 71 -63 22 -127 19 -187 -9z"/>
<path d="M3976 3484 c-5 -13 -9 -14 -21 -4 -13 10 -17 7 -30 -23 -19 -46 -19
-46 5 -40 14 4 20 0 20 -10 0 -27 22 -31 41 -9 9 12 22 22 28 22 17 0 13 17
-5 24 -9 3 -14 15 -12 28 4 26 -17 36 -26 12z"/>
<path d="M4007 3286 c-14 -35 21 -67 43 -41 6 8 10 22 8 32 -4 23 -43 29 -51
9z"/>
<path d="M3722 3263 c-12 -24 -4 -43 18 -43 23 0 42 23 34 44 -8 21 -41 21
-52 -1z"/>
<path d="M3870 3152 c-30 -33 -30 -76 1 -67 12 4 21 1 25 -9 10 -25 22 -19 29
14 4 16 10 28 15 27 18 -5 11 19 -9 29 -12 6 -22 15 -21 20 3 18 -16 12 -40
-14z"/>
<path d="M6860 3636 c0 -106 -2 -117 -24 -142 -32 -38 -89 -39 -117 -3 -38 50
-10 139 45 139 11 0 16 6 14 18 -6 30 -68 19 -100 -17 -23 -25 -28 -41 -28
-81 0 -43 5 -56 33 -86 28 -31 41 -37 83 -41 97 -8 145 52 146 185 l0 77 29
-34 c48 -58 64 -100 64 -176 0 -89 -24 -131 -98 -173 -30 -17 -65 -48 -81 -71
-16 -22 -71 -81 -122 -129 -82 -77 -113 -122 -86 -122 19 0 186 149 233 208
33 41 67 71 100 88 67 34 104 106 103 204 0 116 -77 235 -171 264 -23 7 -23 7
-23 -108z"/>
<path d="M6570 3333 c-27 -10 -60 -46 -60 -65 0 -31 28 -33 51 -4 26 34 68 34
98 2 24 -25 51 -25 51 1 0 8 -13 28 -29 44 -29 28 -70 37 -111 22z"/>
<path d="M2995 3306 c-26 -19 -16 -60 16 -64 31 -4 53 20 44 46 -7 25 -39 34
-60 18z"/>
<path d="M3040 3175 c0 -7 21 -18 46 -24 37 -10 45 -15 39 -29 -4 -9 -10 -28
-13 -41 -4 -22 -2 -23 22 -17 23 6 35 0 70 -32 29 -27 55 -41 84 -46 23 -3 42
-10 42 -14 -1 -4 -14 -23 -30 -42 -17 -19 -30 -40 -30 -47 0 -22 31 -15 51 11
11 14 28 28 39 31 12 4 20 15 20 29 0 13 7 29 15 36 23 19 15 56 -10 52 -95
-17 -129 -9 -175 40 -26 28 -25 51 2 63 13 6 24 17 26 25 2 12 -15 15 -98 17
-77 1 -100 -2 -100 -12z"/>
<path d="M3463 2797 c-30 -13 -39 -54 -17 -79 25 -27 66 -20 82 14 23 48 -16
87 -65 65z"/>
<path d="M3641 2664 c-24 -18 -28 -65 -7 -83 26 -22 69 -9 80 22 18 50 -31 90
-73 61z"/>
<path d="M7587 3303 c-4 -3 -7 -17 -7 -30 0 -24 33 -45 57 -36 19 7 26 42 13
58 -13 15 -51 20 -63 8z"/>
<path d="M7385 3170 c-3 -5 10 -19 29 -31 l36 -21 -17 -29 c-25 -42 -77 -64
-146 -62 -56 1 -59 1 -52 -20 4 -12 9 -33 12 -47 4 -13 18 -34 32 -45 14 -11
32 -28 40 -37 9 -10 21 -18 28 -18 21 0 15 30 -12 66 -14 18 -25 37 -25 42 0
5 21 13 46 17 35 5 54 15 79 42 25 27 37 34 54 28 19 -6 21 -3 21 39 0 46 0
46 34 46 33 0 62 20 49 33 -10 11 -201 8 -208 -3z"/>
<path d="M7122 2799 c-30 -11 -39 -54 -16 -80 25 -28 65 -21 82 13 23 48 -15
86 -66 67z"/>
<path d="M6917 2662 c-33 -37 -11 -92 37 -92 51 0 74 66 34 94 -29 21 -51 20
-71 -2z"/>
<path d="M4810 1991 c0 -16 13 -20 88 -30 289 -36 322 -37 322 -7 0 11 -18 16
-67 21 -38 3 -127 13 -200 21 -73 8 -135 14 -138 14 -3 0 -5 -8 -5 -19z"/>
<path d="M8230 7603 c0 -5 10 -18 23 -29 l22 -19 -20 25 c-11 14 -21 27 -22
29 -2 2 -3 0 -3 -6z"/>
<path d="M8140 7596 c0 -2 8 -10 18 -17 15 -13 16 -12 3 4 -13 16 -21 21 -21
13z"/>
<path d="M2569 7553 l-24 -28 28 24 c25 23 32 31 24 31 -2 0 -14 -12 -28 -27z"/>
<path d="M2596 7522 c-22 -27 -24 -32 -7 -17 20 17 47 55 39 55 -2 0 -16 -17
-32 -38z"/>
<path d="M3053 7541 c-10 -17 -9 -19 12 -17 13 0 21 3 19 5 -2 2 2 11 9 20 10
14 10 14 -5 3 -10 -8 -17 -9 -20 -2 -1 5 -8 2 -15 -9z"/>
<path d="M2750 7520 c-16 -22 -25 -28 -34 -21 -9 8 -23 -1 -52 -32 -78 -84
-146 -167 -136 -167 6 0 14 5 18 11 4 8 9 7 15 -2 7 -12 9 -11 10 1 1 8 2 20
3 27 0 6 14 21 29 33 15 12 26 25 23 27 -3 3 2 12 10 20 8 8 26 30 40 49 19
25 30 31 39 24 8 -7 20 -1 39 21 15 17 26 33 23 35 -3 3 -15 -9 -27 -26z"/>
<path d="M2937 7543 c-4 -3 -7 -13 -7 -22 1 -13 3 -13 11 2 11 19 8 33 -4 20z"/>
<path d="M2393 7480 c-18 -21 -33 -42 -33 -47 0 -9 44 42 60 70 16 27 8 20
-27 -23z"/>
<path d="M8120 7501 c5 -11 15 -23 21 -27 6 -3 3 5 -6 20 -20 30 -30 35 -15 7z"/>
<path d="M8306 7507 c3 -10 9 -15 12 -12 3 3 0 11 -7 18 -10 9 -11 8 -5 -6z"/>
<path d="M3075 7500 c3 -5 8 -10 11 -10 2 0 4 5 4 10 0 6 -5 10 -11 10 -5 0
-7 -4 -4 -10z"/>
<path d="M3280 7506 c0 -2 7 -9 15 -16 9 -7 15 -8 15 -2 0 5 -7 12 -15 16 -8
3 -15 4 -15 2z"/>
<path d="M2355 7473 l-17 -28 23 22 c12 12 20 25 17 28 -3 3 -13 -7 -23 -22z"/>
<path d="M7317 7476 c-9 -7 -17 -19 -17 -26 0 -9 8 -5 21 9 24 26 22 35 -4 17z"/>
<path d="M2860 7465 c-7 -9 -11 -17 -9 -20 3 -2 10 5 17 15 14 24 10 26 -8 5z"/>
<path d="M8325 7469 c-4 -6 -5 -12 -2 -15 2 -3 7 2 10 11 7 17 1 20 -8 4z"/>
<path d="M2683 7438 c1 -7 -4 -12 -11 -10 -8 1 -11 -2 -7 -8 5 -8 11 -8 21 1
7 6 11 15 8 20 -8 13 -14 11 -11 -3z"/>
<path d="M2300 7433 c0 -4 5 -15 10 -23 8 -13 10 -13 10 2 0 9 -4 20 -10 23
-5 3 -10 3 -10 -2z"/>
<path d="M2819 7423 c-12 -16 -12 -17 2 -6 9 7 20 9 24 5 5 -4 5 -1 1 6 -9 16
-11 15 -27 -5z"/>
<path d="M8285 7416 c10 -14 19 -26 22 -26 7 0 -17 39 -28 46 -6 3 -3 -5 6
-20z"/>
<path d="M2874 7388 l-19 -23 23 19 c21 18 27 26 19 26 -2 0 -12 -10 -23 -22z"/>
<path d="M3361 7405 c0 -5 3 -16 8 -23 7 -11 9 -10 14 3 4 9 3 14 -2 10 -5 -3
-12 1 -14 7 -3 7 -6 9 -6 3z"/>
<path d="M7310 7406 c0 -2 9 -6 20 -9 11 -3 18 -1 14 4 -5 9 -34 13 -34 5z"/>
<path d="M4065 7390 c3 -5 8 -10 11 -10 2 0 4 5 4 10 0 6 -5 10 -11 10 -5 0
-7 -4 -4 -10z"/>
<path d="M4461 7383 c-1 -25 14 -39 25 -22 4 7 3 9 -4 5 -6 -3 -12 3 -15 16
-4 23 -4 23 -6 1z"/>
<path d="M7367 7384 c2 -7 11 -10 19 -7 19 7 18 10 -5 16 -13 3 -18 1 -14 -9z"/>
<path d="M8402 7378 c7 -13 11 -27 10 -31 -1 -5 2 -6 8 -2 14 9 13 -8 -2 -25
-11 -12 -10 -12 4 -1 14 10 18 9 27 -7 6 -11 8 -22 5 -24 -2 -3 7 -16 21 -29
13 -13 25 -31 25 -39 0 -13 -1 -13 -10 0 -5 8 -10 10 -10 4 0 -6 8 -18 17 -25
9 -8 14 -9 10 -2 -4 6 -2 13 4 15 7 2 0 17 -16 36 -15 18 -24 32 -20 32 3 0
-13 27 -36 60 -43 61 -60 78 -37 38z"/>
<path d="M4098 7383 c6 -2 10 -9 7 -13 -3 -5 4 -14 16 -20 17 -10 20 -9 14 1
-6 9 -3 11 11 6 14 -5 12 -2 -6 13 -14 11 -32 19 -40 19 -10 0 -11 -2 -2 -6z"/>
<path d="M3393 7365 c0 -8 7 -15 15 -15 12 0 12 3 2 15 -7 8 -13 15 -15 15 -1
0 -2 -7 -2 -15z"/>
<path d="M3665 7370 c-3 -6 1 -7 9 -4 18 7 21 14 7 14 -6 0 -13 -4 -16 -10z"/>
<path d="M7876 7352 c-3 -5 1 -9 9 -9 8 0 12 4 9 9 -3 4 -7 8 -9 8 -2 0 -6 -4
-9 -8z"/>
<path d="M8040 7330 c12 -16 24 -30 26 -30 3 0 -4 14 -16 30 -12 17 -24 30
-26 30 -3 0 4 -13 16 -30z"/>
<path d="M3187 7344 c-3 -3 -3 -12 -1 -19 6 -16 -12 -29 -21 -15 -10 16 -25
12 -19 -5 9 -23 40 -18 52 10 10 22 3 42 -11 29z"/>
<path d="M8221 7290 c24 -33 47 -63 52 -67 5 -3 -10 22 -33 56 -23 33 -46 63
-51 67 -5 3 9 -22 32 -56z"/>
<path d="M4490 7313 c1 -18 18 -35 24 -24 4 6 4 16 1 21 -7 12 -25 13 -25 3z"/>
<path d="M2696 7281 c-12 -13 -14 -21 -6 -26 14 -9 20 -4 25 24 5 26 3 26 -19
2z"/>
<path d="M4256 7277 c3 -10 9 -15 12 -12 3 3 0 11 -7 18 -10 9 -11 8 -5 -6z"/>
<path d="M8300 7260 c12 -16 24 -30 26 -30 3 0 -4 14 -16 30 -12 17 -24 30
-26 30 -3 0 4 -13 16 -30z"/>
<path d="M4515 7271 c-4 -7 -2 -18 4 -24 9 -9 10 -7 5 7 -5 14 -4 17 5 12 7
-5 10 -17 8 -28 -3 -11 -3 -17 0 -14 4 3 12 1 20 -5 22 -19 15 7 -10 37 -17
20 -26 24 -32 15z"/>
<path d="M6359 7259 c-13 -12 -17 -20 -9 -17 8 3 20 -1 25 -9 7 -10 10 -6 11
17 1 16 0 30 -1 30 -1 0 -13 -10 -26 -21z"/>
<path d="M8146 7267 c3 -10 9 -15 12 -12 3 3 0 11 -7 18 -10 9 -11 8 -5 -6z"/>
<path d="M3150 7259 c0 -5 5 -7 10 -4 6 3 10 8 10 11 0 2 -4 4 -10 4 -5 0 -10
-5 -10 -11z"/>
<path d="M4230 7266 c0 -2 8 -10 18 -17 15 -13 16 -12 3 4 -13 16 -21 21 -21
13z"/>
<path d="M2545 7249 c-4 -6 -5 -12 -2 -15 2 -3 7 2 10 11 7 17 1 20 -8 4z"/>
<path d="M3502 7223 c-36 -34 -39 -39 -24 -53 14 -13 15 -12 9 3 -4 10 -2 17
5 17 6 0 9 3 5 6 -12 12 17 33 31 22 9 -8 11 -7 6 7 -5 11 -4 16 3 12 5 -3 10
0 10 8 0 20 0 20 -45 -22z"/>
<path d="M5020 7256 c0 -2 8 -10 18 -17 15 -13 16 -12 3 4 -13 16 -21 21 -21
13z"/>
<path d="M2746 7232 c-3 -5 1 -9 9 -9 8 0 12 4 9 9 -3 4 -7 8 -9 8 -2 0 -6 -4
-9 -8z"/>
<path d="M4281 7224 c0 -11 3 -14 6 -6 3 7 2 16 -1 19 -3 4 -6 -2 -5 -13z"/>
<path d="M3125 7220 c-3 -5 -2 -10 4 -10 5 0 13 5 16 10 3 6 2 10 -4 10 -5 0
-13 -4 -16 -10z"/>
<path d="M3737 7194 c-9 -18 -12 -34 -7 -34 6 0 10 -8 11 -17 0 -15 2 -15 8 2
8 19 8 19 15 -3 4 -12 9 -39 11 -58 6 -63 99 -155 154 -153 25 1 25 2 -4 10
-24 6 -19 7 24 5 34 -2 48 0 38 5 -8 5 -31 10 -50 11 -19 2 -33 6 -31 9 2 3
-8 12 -22 19 -26 15 -84 94 -84 117 0 8 -4 12 -8 9 -4 -2 -7 18 -6 45 2 38 -1
51 -15 59 -15 7 -21 3 -34 -26z"/>
<path d="M3078 7213 c6 -2 18 -2 25 0 6 3 1 5 -13 5 -14 0 -19 -2 -12 -5z"/>
<path d="M6336 7212 c-3 -5 1 -9 9 -9 8 0 12 4 9 9 -3 4 -7 8 -9 8 -2 0 -6 -4
-9 -8z"/>
<path d="M7982 7200 c-7 -12 -10 -25 -7 -30 3 -5 -5 -18 -17 -30 -15 -14 -18
-20 -8 -18 20 4 43 36 35 49 -4 5 1 19 11 30 9 10 13 19 8 19 -5 0 -15 -9 -22
-20z"/>
<path d="M8180 7216 c0 -2 8 -10 18 -17 15 -13 16 -12 3 4 -13 16 -21 21 -21
13z"/>
<path d="M4243 7195 c0 -8 4 -12 9 -9 5 3 6 10 3 15 -9 13 -12 11 -12 -6z"/>
<path d="M4575 7201 c-11 -5 -23 -7 -27 -4 -4 2 -5 -3 -1 -12 4 -12 8 -13 13
-5 5 8 14 3 27 -16 19 -26 20 -26 25 -6 4 16 2 19 -10 15 -12 -5 -14 -1 -10
15 4 12 5 22 5 21 -1 0 -11 -4 -22 -8z"/>
<path d="M6832 7194 c-7 -8 -8 -14 -3 -14 10 0 25 19 20 25 -2 1 -10 -3 -17
-11z"/>
<path d="M7100 7206 c0 -2 8 -10 18 -17 15 -13 16 -12 3 4 -13 16 -21 21 -21
13z"/>
<path d="M8130 7206 c0 -2 8 -10 18 -17 15 -13 16 -12 3 4 -13 16 -21 21 -21
13z"/>
<path d="M8446 7185 c24 -39 24 -40 24 -28 0 6 -9 21 -21 34 l-20 24 17 -30z"/>
<path d="M4330 7190 c0 -6 -4 -9 -8 -6 -5 3 -9 -1 -9 -9 0 -11 4 -12 14 -3 19
16 28 2 12 -19 -11 -15 -11 -16 1 -6 11 10 16 9 27 -5 10 -12 10 -8 -1 15 -17
34 -36 52 -36 33z"/>
<path d="M6006 7191 c-8 -13 4 -42 15 -35 5 3 14 15 19 27 10 20 10 20 -3 5
-17 -22 -31 -23 -23 -3 6 16 1 20 -8 6z"/>
<path d="M8340 7196 c0 -2 8 -10 18 -17 15 -13 16 -12 3 4 -13 16 -21 21 -21
13z"/>
<path d="M8516 7184 c-9 -24 -7 -31 5 -14 8 11 12 12 16 3 2 -7 14 -23 25 -35
l19 -23 -18 33 c-24 45 -39 57 -47 36z"/>
<path d="M8300 7181 c0 -6 4 -13 10 -16 6 -3 7 1 4 9 -7 18 -14 21 -14 7z"/>
<path d="M6041 7153 c-10 -26 -10 -27 4 -9 8 11 15 23 15 28 0 15 -7 8 -19
-19z"/>
<path d="M6855 7169 c-4 -6 -5 -12 -2 -15 2 -3 7 2 10 11 7 17 1 20 -8 4z"/>
<path d="M3419 7143 l-24 -28 26 23 c34 30 48 28 19 -3 -13 -14 -18 -25 -12
-25 14 0 43 41 36 52 -9 14 -19 9 -45 -19z"/>
<path d="M4243 7159 c-6 -6 -9 -18 -6 -27 4 -10 2 -13 -5 -8 -7 4 -12 1 -13
-6 -8 -157 -6 -159 25 -24 17 73 17 83 -1 65z"/>
<path d="M8160 7166 c0 -2 8 -10 18 -17 15 -13 16 -12 3 4 -13 16 -21 21 -21
13z"/>
<path d="M8366 7152 c-3 -5 1 -9 9 -9 8 0 12 4 9 9 -3 4 -7 8 -9 8 -2 0 -6 -4
-9 -8z"/>
<path d="M4577 7129 c4 -13 9 -17 15 -11 11 11 3 32 -12 32 -4 0 -6 -9 -3 -21z"/>
<path d="M6865 7139 c-4 -6 -5 -12 -2 -15 2 -3 7 2 10 11 7 17 1 20 -8 4z"/>
<path d="M8525 7140 c3 -5 8 -10 11 -10 2 0 4 5 4 10 0 6 -5 10 -11 10 -5 0
-7 -4 -4 -10z"/>
<path d="M2998 7129 c-23 -13 -23 -32 2 -54 16 -15 22 -15 35 -5 20 16 19 56
-1 64 -19 7 -15 8 -36 -5z m22 -42 c11 -5 9 -6 -4 -4 -11 1 -21 9 -23 17 -3
10 -2 11 4 4 4 -6 15 -14 23 -17z"/>
<path d="M3728 7090 c2 -22 8 -42 12 -45 10 -6 1 66 -9 77 -4 4 -5 -10 -3 -32z"/>
<path d="M4601 7111 c-8 -14 -8 -27 1 -46 11 -24 9 -29 -12 -46 l-25 -20 30
13 c41 17 47 29 24 51 -21 20 -24 33 -9 42 6 3 10 0 10 -8 0 -8 7 -20 15 -27
12 -10 11 -6 -2 21 -21 45 -20 44 -32 20z"/>
<path d="M6265 7120 c-3 -5 -1 -10 4 -10 6 0 11 5 11 10 0 6 -2 10 -4 10 -3 0
-8 -4 -11 -10z"/>
<path d="M7597 7118 c-27 -20 -11 -60 22 -56 14 2 25 9 24 16 -2 6 2 12 9 12
6 0 2 9 -10 20 -25 24 -24 23 -45 8z m19 -23 c-3 -8 0 -15 6 -15 6 0 9 -3 5
-6 -10 -11 -26 6 -20 21 3 8 7 15 10 15 3 0 3 -7 -1 -15z"/>
<path d="M7970 7112 c-13 -14 -12 -15 2 -10 19 8 51 -23 53 -50 1 -24 15 -43
25 -37 9 6 -14 51 -48 92 -16 20 -18 20 -32 5z"/>
<path d="M8211 7100 c29 -45 29 -45 29 -34 0 5 -12 23 -26 39 l-26 30 23 -35z"/>
<path d="M6611 7084 c0 -11 3 -14 6 -6 3 7 2 16 -1 19 -3 4 -6 -2 -5 -13z"/>
<path d="M8573 7067 c1 -24 4 -32 9 -23 4 8 4 25 -1 38 -8 20 -9 18 -8 -15z"/>
<path d="M8077 7072 c12 -11 20 -22 17 -24 -2 -3 6 -16 18 -30 13 -14 24 -32
26 -39 7 -28 17 -27 17 1 0 15 -2 28 -5 28 -23 -2 -31 4 -26 18 4 10 2 13 -6
8 -8 -5 -9 0 -5 15 3 13 3 20 0 17 -4 -3 -18 1 -32 10 l-26 15 22 -19z"/>
<path d="M8420 7081 c0 -6 4 -13 10 -16 6 -3 7 1 4 9 -7 18 -14 21 -14 7z"/>
<path d="M5780 7071 c8 -5 33 -12 55 -15 27 -4 34 -4 20 3 -31 13 -93 24 -75
12z"/>
<path d="M6556 7048 c3 -4 9 -8 15 -8 5 0 9 4 9 8 0 5 -7 9 -15 9 -8 0 -12 -4
-9 -9z"/>
<path d="M8543 7052 c-10 -7 -10 -12 0 -25 11 -16 12 -15 12 8 0 14 0 25 0 25
0 0 -6 -4 -12 -8z"/>
<path d="M4081 7028 c-10 -18 -11 -20 0 -10 21 19 28 14 16 -12 -9 -18 -15
-22 -25 -14 -9 8 -11 7 -6 -6 4 -12 2 -15 -9 -10 -8 3 -18 1 -22 -5 -3 -7 0
-8 9 -5 26 10 18 -4 -11 -20 -20 -11 -23 -15 -10 -16 9 0 26 9 37 20 11 11 25
20 30 20 6 0 10 8 10 18 0 10 5 23 11 29 11 11 5 33 -9 33 -4 0 -13 -10 -21
-22z"/>
<path d="M6414 7037 c3 -10 6 -21 6 -23 0 -11 19 -2 24 12 4 9 2 13 -5 8 -6
-4 -16 0 -21 7 -8 11 -8 10 -4 -4z"/>
<path d="M7275 7030 c10 -11 20 -20 23 -20 3 0 -3 9 -13 20 -10 11 -20 20 -23
20 -3 0 3 -9 13 -20z"/>
<path d="M4145 7008 c23 -37 12 -77 -29 -108 -19 -14 -32 -28 -30 -31 2 -3 -9
-6 -24 -7 -15 0 -48 -3 -74 -7 -66 -11 -127 15 -183 78 -28 30 -45 43 -45 33
0 -9 5 -16 10 -16 6 0 10 -4 10 -10 0 -12 -22 -9 -32 5 -5 6 -8 4 -8 -4 0 -20
70 -84 114 -105 25 -12 61 -18 105 -18 56 0 78 6 127 31 72 37 94 54 94 72 0
11 -2 11 -11 -1 -9 -12 -10 -12 -5 3 3 10 6 21 6 23 0 3 3 3 8 1 4 -3 12 0 18
7 8 9 7 15 -3 24 -7 7 -13 10 -13 7 0 -3 -12 7 -26 22 l-25 28 16 -27z m-364
-92 c6 3 18 -3 28 -15 10 -11 21 -18 25 -14 3 3 6 4 6 0 0 -15 -20 -15 -36 0
-10 10 -22 18 -27 18 -6 0 -11 6 -13 13 -1 7 0 8 3 2 2 -5 9 -7 14 -4z m169
-76 c32 -7 30 -8 -17 -7 -33 1 -48 5 -40 10 8 6 4 7 -11 4 -13 -3 -20 -1 -16
5 3 5 16 7 28 3 11 -4 37 -10 56 -15z"/>
<path d="M8585 7020 c-3 -5 -1 -10 4 -10 6 0 11 5 11 10 0 6 -2 10 -4 10 -3 0
-8 -4 -11 -10z"/>
<path d="M3740 7011 c0 -5 5 -13 10 -16 6 -3 10 -2 10 4 0 5 -4 13 -10 16 -5
3 -10 2 -10 -4z"/>
<path d="M5986 7000 c39 -19 90 -17 78 2 -3 5 -11 4 -20 -2 -10 -9 -21 -8 -45
4 -18 9 -37 16 -43 15 -6 0 7 -9 30 -19z"/>
<path d="M6953 7000 c-1 -11 2 -22 6 -24 4 -3 7 4 6 14 -2 27 -10 33 -12 10z"/>
<path d="M8063 6995 c0 -8 4 -12 9 -9 5 3 6 10 3 15 -9 13 -12 11 -12 -6z"/>
<path d="M6080 6990 c0 -6 -8 -10 -17 -11 -10 0 -13 -3 -7 -5 6 -3 21 -1 34 4
19 7 21 10 7 15 -10 4 -17 2 -17 -3z"/>
<path d="M7335 6980 c1 -12 27 -56 59 -97 l58 -75 -24 -25 -23 -25 37 22 c37
21 37 22 22 48 l-16 27 21 -25 21 -25 -28 -24 c-15 -14 -19 -22 -10 -18 9 3
22 -1 29 -9 10 -12 13 -12 25 3 12 17 12 17 11 -2 -1 -11 -5 -22 -8 -25 -3 -3
16 -38 42 -78 26 -41 50 -69 53 -64 4 6 2 13 -4 17 -5 3 -10 11 -10 17 0 6 6
6 15 -2 14 -12 -54 118 -77 147 -6 7 -5 20 2 35 11 22 11 22 -5 3 -9 -11 -20
-27 -25 -35 -5 -8 -12 -11 -16 -7 -4 4 1 14 12 21 10 8 16 18 12 21 -4 4 3 16
15 27 l22 19 -26 -15 c-25 -16 -26 -15 -60 26 -18 24 -37 48 -42 53 -4 6 -13
18 -20 28 -12 17 -13 17 -14 -3 -1 -12 2 -18 9 -14 7 5 8 2 3 -6 -6 -10 -12
-7 -26 11 -14 18 -15 27 -6 39 6 8 7 12 3 8 -5 -4 -14 0 -21 9 -10 14 -12 13
-10 -7z m108 -122 c-2 -4 -14 3 -26 15 -13 12 -21 26 -19 30 2 4 14 -2 26 -15
12 -13 21 -26 19 -30z m93 -134 c-3 -8 1 -14 9 -14 9 0 12 -6 8 -17 -5 -12 -3
-14 8 -8 8 4 11 5 7 0 -4 -4 0 -14 8 -22 8 -8 11 -19 8 -24 -7 -12 -61 70 -61
93 0 10 4 15 9 12 5 -4 7 -12 4 -20z"/>
<path d="M8570 6991 c0 -10 29 -36 34 -30 1 2 -6 12 -16 22 -10 9 -18 13 -18
8z"/>
<path d="M8595 6990 c3 -5 8 -10 11 -10 2 0 4 5 4 10 0 6 -5 10 -11 10 -5 0
-7 -4 -4 -10z"/>
<path d="M8621 6984 c0 -11 3 -14 6 -6 3 7 2 16 -1 19 -3 4 -6 -2 -5 -13z"/>
<path d="M4490 6970 c-19 -11 -30 -19 -25 -19 6 0 26 8 45 19 19 11 31 19 25
19 -5 0 -26 -8 -45 -19z"/>
<path d="M6461 6970 c-1 -21 48 -92 59 -85 6 4 5 14 -2 25 -7 10 -16 16 -20
14 -4 -3 -8 2 -8 10 0 9 -4 16 -9 16 -5 0 -12 8 -14 18 -3 12 -5 13 -6 2z"/>
<path d="M8309 6945 c5 -11 17 -29 26 -40 l16 -20 -10 20 c-5 11 -17 29 -26
40 l-16 20 10 -20z"/>
<path d="M8100 6940 c0 -5 4 -10 9 -10 5 0 14 -14 21 -31 7 -17 18 -36 25 -42
6 -7 24 -33 39 -59 32 -54 45 -65 20 -15 -23 45 -103 167 -109 167 -3 0 -5 -4
-5 -10z"/>
<path d="M6130 6936 c0 -2 7 -7 16 -10 8 -3 12 -2 9 4 -6 10 -25 14 -25 6z"/>
<path d="M3968 6923 c6 -2 18 -2 25 0 6 3 1 5 -13 5 -14 0 -19 -2 -12 -5z"/>
<path d="M4386 6915 c-11 -8 -15 -15 -9 -15 6 0 16 7 23 15 16 19 11 19 -14 0z"/>
<path d="M8176 6915 c4 -8 11 -15 16 -15 6 0 5 6 -2 15 -7 8 -14 15 -16 15 -2
0 -1 -7 2 -15z"/>
<path d="M6170 6918 c3 -3 37 -24 75 -47 41 -25 60 -33 45 -19 -25 23 -140 86
-120 66z"/>
<path d="M7638 6895 c-23 -15 -43 -22 -54 -18 -11 4 -15 3 -11 -4 4 -6 0 -19
-9 -27 -27 -28 -4 -17 57 25 52 37 66 49 56 49 -1 0 -19 -11 -39 -25z"/>
<path d="M4335 6880 c-10 -11 -21 -17 -25 -15 -4 3 -50 -26 -101 -63 -85 -62
-111 -93 -88 -108 5 -3 9 6 9 20 0 22 5 26 29 26 31 0 86 44 76 60 -3 6 -2 10
4 10 5 0 11 -4 13 -9 2 -5 29 9 62 30 65 42 80 55 52 45 -14 -5 -17 -2 -12 9
7 20 3 19 -19 -5z m0 -24 c-11 -8 -23 -12 -27 -10 -4 2 -9 0 -13 -6 -3 -5 -12
-10 -18 -10 -7 0 -3 7 7 15 10 8 22 12 27 10 4 -3 10 -1 14 5 3 5 11 10 18 10
6 0 2 -6 -8 -14z m-70 -36 c3 -5 1 -10 -4 -10 -6 0 -11 5 -11 10 0 6 2 10 4
10 3 0 8 -4 11 -10z m-60 -50 c-3 -5 -11 -10 -16 -10 -6 0 -7 5 -4 10 3 6 11
10 16 10 6 0 7 -4 4 -10z"/>
<path d="M6530 6876 c0 -7 52 -55 76 -69 7 -4 16 -2 20 4 4 7 3 9 -4 5 -6 -3
-17 -1 -24 6 -52 48 -68 61 -68 54z"/>
<path d="M7125 6870 c-4 -6 -11 -7 -17 -4 -6 4 -8 2 -5 -3 7 -11 -20 -28 -36
-24 -5 1 -6 -3 -2 -9 7 -11 24 -4 65 29 14 12 20 21 13 21 -6 0 -15 -5 -18
-10z"/>
<path d="M7850 6859 c0 -5 -4 -7 -10 -4 -13 8 -13 2 4 -29 10 -21 15 -23 19
-11 4 8 2 15 -4 15 -6 0 -8 9 -4 20 3 11 4 20 1 20 -3 0 -6 -5 -6 -11z"/>
<path d="M8375 6829 c16 -30 29 -40 19 -14 -4 9 -1 15 7 15 18 0 -5 23 -26 26
-13 2 -13 -1 0 -27z"/>
<path d="M3574 6839 c-9 -15 12 -33 30 -26 9 4 16 13 16 22 0 17 -35 21 -46 4z"/>
<path d="M6620 6846 c0 -2 8 -10 18 -17 15 -13 16 -12 3 4 -13 16 -21 21 -21
13z"/>
<path d="M6765 6841 c-3 -5 0 -13 7 -18 16 -10 42 -14 33 -5 -4 4 -12 7 -18 7
-7 1 -11 6 -9 13 2 14 -4 16 -13 3z"/>
<path d="M7923 6843 c-7 -2 -13 -8 -13 -13 0 -5 6 -10 13 -13 6 -2 3 -3 -8 -1
-30 5 -44 -8 -34 -31 4 -11 8 -15 8 -9 1 6 13 14 29 17 39 9 56 23 49 41 -6
16 -21 19 -44 9z"/>
<path d="M6320 6832 c0 -5 21 -23 48 -40 26 -17 74 -53 107 -81 52 -44 62 -48
75 -35 12 12 10 18 -20 44 -19 16 -39 29 -45 29 -5 0 -2 -6 8 -13 12 -9 14
-16 8 -21 -15 -9 -39 16 -34 35 4 11 2 12 -5 2 -7 -10 -14 -8 -35 9 -25 19
-29 48 -5 33 6 -4 8 -2 4 4 -3 6 -18 9 -31 6 -14 -2 -25 0 -25 6 0 5 5 10 12
10 6 0 8 3 5 6 -4 4 -13 2 -21 -5 -11 -9 -15 -8 -20 4 -6 16 -26 21 -26 7z
m198 -124 c-2 -7 3 -12 10 -10 6 1 12 -2 12 -8 0 -5 -4 -10 -9 -10 -13 0 -32
26 -24 33 10 10 13 8 11 -5z"/>
<path d="M7815 6820 c-4 -6 -2 -17 4 -23 15 -15 25 -2 13 19 -7 12 -11 13 -17
4z"/>
<path d="M5255 6797 c-4 -15 -5 -50 -2 -77 6 -58 -6 -65 -43 -22 -13 15 -23
28 -22 30 6 7 0 22 -9 22 -6 0 -9 -9 -6 -20 3 -13 1 -18 -6 -13 -7 4 -8 0 -3
-13 15 -38 18 -72 7 -78 -6 -4 -14 0 -17 8 -3 9 -11 13 -17 9 -6 -3 -7 -1 -3
6 13 21 -48 101 -78 101 -3 0 9 -21 27 -47 30 -43 49 -113 32 -113 -4 0 -24
18 -44 40 -22 25 -48 43 -68 46 -41 8 -44 -10 -5 -30 16 -8 34 -22 41 -30 7
-9 16 -14 20 -12 3 2 7 -11 8 -30 1 -19 -1 -34 -3 -34 -3 0 -22 9 -44 20 -46
23 -50 24 -87 8 l-28 -11 40 -9 c22 -5 48 -10 57 -11 9 -1 15 -3 12 -6 -2 -3
8 -18 23 -33 l28 -29 -50 2 c-28 1 -59 -3 -71 -9 -26 -14 -50 -42 -36 -42 6 0
14 5 17 10 12 19 115 8 115 -12 0 -5 -20 -17 -44 -28 -60 -25 -64 -37 -13 -37
48 1 77 -8 77 -23 0 -5 -8 -10 -18 -10 -20 0 -62 -27 -62 -39 0 -9 75 -5 90 4
5 3 16 -2 25 -11 15 -16 13 -20 -26 -60 -33 -34 -40 -47 -31 -56 9 -9 13 -7
18 5 3 9 10 15 14 12 4 -2 26 9 48 25 47 34 58 27 37 -24 -16 -38 -20 -92 -7
-100 5 -3 14 12 21 32 14 37 47 82 63 82 4 0 8 -29 8 -65 0 -94 20 -81 44 28
4 15 13 27 21 27 10 0 15 -16 17 -57 l3 -58 18 37 c9 21 17 48 17 62 0 46 19
37 50 -24 17 -33 35 -60 40 -60 14 0 13 9 -10 82 -24 76 -24 78 -5 78 8 0 15
-4 15 -8 0 -25 92 -93 107 -79 4 4 -10 24 -30 43 -26 25 -37 45 -37 65 0 34
19 38 44 10 17 -19 102 -48 112 -39 3 3 -10 15 -28 26 -44 27 -74 60 -87 95
l-11 28 40 -22 c35 -20 44 -21 78 -11 21 7 47 21 57 32 22 24 18 25 -28 5 -50
-21 -62 -19 -99 15 l-33 29 50 2 c28 1 54 1 58 0 5 -1 7 4 5 11 -3 7 -29 18
-59 25 -30 6 -56 12 -59 12 -3 1 18 13 45 27 52 26 125 91 89 78 -10 -4 -31
-16 -46 -26 -16 -11 -43 -18 -70 -17 l-43 0 25 17 c39 26 70 60 70 74 -1 7
-14 -2 -29 -20 -20 -24 -31 -30 -36 -21 -6 8 -4 10 6 4 8 -5 11 -4 6 0 -4 5 1
18 10 29 18 21 18 21 -2 4 -28 -24 -75 -40 -75 -27 0 6 14 30 30 53 31 43 46
86 29 86 -8 0 -13 -15 -10 -33 3 -16 -53 -52 -84 -55 -28 -3 -30 0 -32 30 -2
22 0 28 6 19 9 -14 22 26 26 82 3 49 -12 28 -34 -48 -22 -74 -38 -93 -48 -56
-3 11 -12 22 -22 24 -14 4 -14 5 1 6 10 1 16 9 15 21 -2 33 -24 23 -31 -15 -7
-34 -27 -45 -51 -27 -9 6 -12 47 -6 62 7 14 7 51 0 62 -5 8 -10 3 -14 -15z
m56 -207 c97 -13 139 -58 139 -147 0 -98 -58 -156 -157 -156 -61 0 -93 18
-131 74 -24 34 -26 85 -7 132 4 10 3 17 -5 17 -6 0 -9 -4 -5 -9 3 -5 2 -12 -3
-15 -4 -2 -8 8 -7 24 0 22 3 26 13 18 9 -8 19 -5 37 12 19 18 22 26 13 32 -9
5 -7 8 7 6 11 0 29 0 40 1 17 2 15 5 -10 17 -25 12 -26 14 -5 9 14 -4 50 -10
81 -15z m-131 -24 c0 -2 -8 -10 -17 -17 -16 -13 -17 -12 -4 4 13 16 21 21 21
13z"/>
<path d="M5263 6479 c-26 -34 -30 -45 -22 -61 25 -46 100 -48 121 -3 9 21 8
28 -7 45 -23 25 -35 25 -35 1 0 -10 -7 -24 -15 -31 -12 -10 -16 -7 -25 16 -10
25 -8 31 9 45 22 18 27 29 13 29 -4 0 -22 -19 -39 -41z"/>
<path d="M7020 6805 c-14 -8 -20 -14 -15 -14 6 0 21 6 35 14 14 8 21 14 15 14
-5 0 -21 -6 -35 -14z"/>
<path d="M4649 6794 c-16 -20 -1 -48 30 -52 15 -2 24 4 30 20 16 42 -31 67
-60 32z"/>
<path d="M5974 6787 c-7 -20 1 -33 27 -48 20 -10 20 -10 3 23 -22 43 -22 44
-30 25z"/>
<path d="M6637 6789 c7 -7 15 -10 18 -7 3 3 -2 9 -12 12 -14 6 -15 5 -6 -5z"/>
<path d="M6967 6789 c7 -7 15 -10 18 -7 3 3 -2 9 -12 12 -14 6 -15 5 -6 -5z"/>
<path d="M6436 6781 c-4 -5 -2 -12 3 -15 5 -4 12 -2 15 3 4 5 2 12 -3 15 -5 4
-12 2 -15 -3z"/>
<path d="M6669 6772 c-11 -14 -11 -15 1 -5 11 10 17 9 32 -4 10 -9 18 -11 18
-5 0 6 -9 16 -19 21 -14 8 -22 7 -32 -7z"/>
<path d="M6908 6783 c6 -2 18 -2 25 0 6 3 1 5 -13 5 -14 0 -19 -2 -12 -5z"/>
<path d="M5328 6763 c7 -3 16 -2 19 1 4 3 -2 6 -13 5 -11 0 -14 -3 -6 -6z"/>
<path d="M8201 6732 c13 -22 25 -39 27 -37 5 5 -27 63 -39 71 -6 3 0 -12 12
-34z"/>
<path d="M5945 6750 c-3 -5 -15 -10 -26 -10 -25 0 -24 -18 2 -46 18 -19 19
-26 9 -45 -11 -20 -11 -21 11 -15 37 11 79 14 73 4 -3 -4 0 -8 6 -8 8 0 10 9
6 25 -5 20 0 32 21 52 16 14 22 23 14 18 -7 -4 -16 -3 -20 3 -4 6 -11 5 -19
-4 -7 -8 -8 -14 -2 -14 6 0 6 -7 -2 -20 -7 -11 -17 -20 -22 -20 -4 0 -2 7 5
17 11 13 11 17 1 20 -6 3 -10 8 -8 11 2 4 -7 15 -19 25 -15 10 -26 13 -30 7z
m34 -49 c-2 -6 -10 2 -17 17 -11 25 -11 25 4 10 9 -9 15 -21 13 -27z m-42 13
c-3 -3 -12 -4 -19 -1 -8 3 -5 6 6 6 11 1 17 -2 13 -5z"/>
<path d="M6680 6751 c0 -5 5 -13 10 -16 6 -3 10 -2 10 4 0 5 -4 13 -10 16 -5
3 -10 2 -10 -4z"/>
<path d="M7887 6739 c-6 -24 -60 -54 -78 -43 -5 3 -9 -2 -9 -10 0 -12 8 -12
48 6 58 25 61 28 52 53 -6 18 -7 17 -13 -6z"/>
<path d="M6712 6731 c2 -8 15 -21 29 -30 19 -11 21 -12 9 0 -8 8 -21 21 -29
29 -11 12 -12 12 -9 1z"/>
<path d="M5486 6696 c-23 -36 -20 -44 5 -12 12 15 19 29 16 32 -2 2 -12 -7
-21 -20z"/>
<path d="M7770 6700 c-6 -11 -8 -25 -5 -30 3 -6 1 -10 -6 -10 -7 0 -10 -2 -7
-5 12 -13 36 9 40 36 5 34 -6 38 -22 9z"/>
<path d="M3695 6679 c-10 -30 18 -58 43 -43 9 6 17 22 17 35 0 34 -50 41 -60
8z"/>
<path d="M6772 6688 c-9 -9 -5 -17 15 -34 15 -13 30 -21 33 -17 3 3 -1 8 -7
10 -20 7 -15 23 5 17 13 -5 14 -4 3 4 -8 6 -21 8 -29 4 -11 -4 -14 -1 -9 11 8
20 5 21 -11 5z"/>
<path d="M6846 6683 c5 -5 12 -12 16 -18 4 -6 8 -2 8 8 0 9 -7 17 -17 17 -9 0
-12 -3 -7 -7z"/>
<path d="M6830 6626 c0 -8 7 -17 16 -20 23 -9 24 -4 2 17 -14 13 -18 14 -18 3z"/>
<path d="M8140 6542 c-8 -9 -14 -22 -12 -29 2 -7 -2 -13 -8 -13 -5 0 -10 -8
-10 -17 1 -17 1 -17 11 0 5 9 17 17 25 17 13 0 13 -3 -2 -17 -12 -12 -13 -18
-4 -21 6 -2 19 3 28 11 13 13 13 19 2 31 -7 9 -20 16 -29 17 -11 0 -10 3 7 11
12 6 22 15 22 20 0 13 -14 9 -30 -10z"/>
<path d="M4530 6530 c0 -12 -14 -29 -35 -42 -42 -28 -44 -43 -6 -62 16 -9 32
-27 35 -41 9 -34 25 -32 39 5 6 16 23 34 39 41 35 14 36 27 3 39 -15 6 -32 25
-41 45 -16 38 -34 46 -34 15z"/>
<path d="M7996 6468 c-9 -34 -8 -35 15 -41 23 -6 63 26 56 46 -2 7 -17 13 -34
15 -25 2 -32 -1 -37 -20z"/>
<path d="M6311 6444 c-16 -11 -22 -24 -18 -39 3 -18 0 -22 -12 -18 -9 4 -4 -4
11 -16 40 -32 80 -37 102 -12 54 60 -16 132 -83 85z m59 -4 c0 8 2 11 6 8 3
-3 -1 -20 -8 -37 -17 -39 -44 -28 -34 14 6 22 9 25 21 15 12 -10 15 -10 15 0z"/>
<path d="M7944 6411 c0 -11 5 -17 13 -14 7 3 13 11 13 19 0 8 -6 14 -13 14 -7
0 -13 -8 -13 -19z"/>
<path d="M7887 6394 c-13 -13 -7 -24 12 -24 11 0 23 5 27 12 5 7 2 9 -9 5 -9
-3 -17 -1 -19 4 -2 6 -7 7 -11 3z"/>
<path d="M4145 6370 c-3 -11 -22 -32 -40 -46 -29 -22 -33 -29 -24 -45 5 -10
16 -19 24 -19 8 0 21 -13 30 -30 19 -38 29 -38 45 0 7 16 20 32 30 35 10 3 24
12 30 20 10 12 9 16 -6 21 -26 10 -64 45 -64 60 0 22 -18 25 -25 4z"/>
<path d="M6165 6380 c-4 -6 -10 -8 -15 -5 -4 3 -19 1 -32 -5 -19 -8 -20 -9 -3
-8 11 2 26 -1 33 -6 7 -4 35 -2 63 5 38 10 46 15 32 20 -27 11 -71 10 -78 -1z"/>
<path d="M6043 6338 c-12 -6 -23 -20 -25 -31 -2 -11 -10 -22 -18 -24 -13 -4
-13 -3 0 6 8 5 11 13 7 17 -10 10 -38 -16 -30 -29 4 -6 1 -7 -6 -2 -14 8 -88
-64 -125 -124 -20 -32 -66 -152 -66 -173 0 -4 9 -8 19 -8 15 0 24 15 41 64 12
36 38 92 60 124 36 56 119 132 144 132 7 0 18 -32 25 -76 33 -199 135 -355
279 -428 100 -51 277 -74 277 -36 0 9 -11 16 -25 17 -157 16 -247 51 -328 127
-88 83 -139 192 -166 358 l-12 78 25 9 c24 9 23 9 -14 10 -22 0 -50 -5 -62
-11z m17 -12 c0 -2 -7 -7 -16 -10 -8 -3 -12 -2 -9 4 6 10 25 14 25 6z m-162
-136 c-7 -10 -14 -17 -17 -15 -4 4 18 35 25 35 2 0 -1 -9 -8 -20z"/>
<path d="M7830 6343 c-42 -16 -31 -53 15 -53 25 0 35 5 40 20 11 35 -12 49
-55 33z"/>
<path d="M7977 6323 c-3 -5 17 -18 46 -28 68 -24 85 -39 114 -105 28 -62 36
-70 76 -70 32 0 38 25 7 33 -11 3 -30 28 -45 60 -38 80 -71 107 -137 114 -31
3 -58 1 -61 -4z m160 -69 c0 -10 -6 -8 -19 5 -10 11 -18 23 -18 26 0 3 8 0 18
-6 10 -7 19 -18 19 -25z"/>
<path d="M4985 6259 c-4 -6 -5 -13 -2 -16 7 -7 27 6 27 18 0 12 -17 12 -25 -2z"/>
<path d="M4555 6195 c-33 -7 -82 -26 -110 -41 -68 -38 -152 -124 -177 -180
-26 -61 -34 -148 -16 -199 16 -48 44 -55 41 -10 -8 91 -5 153 9 186 21 48 81
114 140 154 26 17 46 34 44 36 -2 2 5 5 17 5 12 1 52 8 89 15 51 10 78 10 115
2 40 -10 51 -9 63 3 40 41 -86 58 -215 29z"/>
<path d="M6534 6143 c-34 -25 -15 -77 26 -71 31 4 48 32 34 56 -12 19 -43 26
-60 15z"/>
<path d="M5256 5915 c-33 -31 -34 -74 -3 -103 48 -46 117 -14 117 53 0 69 -63
97 -114 50z"/>
<path d="M4700 5874 c-6 -14 -14 -23 -18 -20 -4 2 -14 1 -22 -4 -12 -7 -12
-12 3 -28 9 -10 17 -26 17 -34 0 -12 10 -15 40 -14 26 0 39 5 36 12 -3 7 4 20
15 30 24 22 24 34 1 34 -11 0 -24 11 -30 25 -15 32 -30 32 -42 -1z"/>
<path d="M5712 5838 c-7 -7 -12 -21 -12 -33 0 -46 48 -60 74 -23 20 28 20 33
0 52 -18 19 -45 21 -62 4z"/>
<path d="M6285 5551 c-52 -24 -88 -64 -116 -126 -20 -44 -23 -66 -22 -185 0
-81 5 -147 12 -165 24 -60 63 -104 114 -130 92 -45 196 -26 266 50 54 59 64
101 59 269 -4 154 -15 191 -75 248 -61 58 -161 75 -238 39z m142 -155 c28 -24
28 -25 28 -151 0 -126 0 -127 -28 -151 -38 -32 -72 -31 -108 5 -29 29 -29 31
-29 146 0 115 0 117 29 146 36 36 70 37 108 5z"/>
<path d="M2935 5506 c-20 -30 -205 -508 -205 -529 0 -21 53 -40 90 -32 27 6
35 16 57 66 l26 59 87 0 86 0 28 -60 c30 -64 48 -76 102 -65 44 8 52 28 32 79
-8 23 -52 140 -98 261 -45 121 -87 226 -92 233 -6 6 -30 12 -54 12 -35 0 -47
-5 -59 -24z m75 -242 c27 -62 26 -74 -7 -74 -51 0 -57 11 -38 69 9 28 19 51
21 51 3 0 14 -21 24 -46z"/>
<path d="M3535 5511 c-22 -10 -51 -30 -64 -44 -31 -34 -53 -117 -41 -157 20
-70 52 -94 205 -152 51 -20 60 -27 60 -48 0 -16 -9 -29 -25 -37 -36 -19 -69
-16 -125 11 -54 24 -81 22 -117 -11 -82 -74 130 -165 284 -123 141 39 174 229
53 297 -22 13 -69 32 -105 44 -98 32 -120 58 -80 94 26 24 79 22 122 -5 44
-27 57 -25 98 9 34 29 35 30 20 58 -9 16 -37 39 -69 56 -67 33 -154 37 -216 8z"/>
<path d="M3940 5511 c-14 -27 -13 -64 4 -87 11 -15 30 -20 93 -24 l78 -5 3
-209 c1 -127 7 -214 13 -222 18 -22 68 -27 94 -10 l25 16 0 215 0 215 63 0
c85 0 111 15 115 65 5 63 -1 65 -255 65 -210 0 -223 -1 -233 -19z"/>
<path d="M4560 5521 c-12 -9 -16 -54 -20 -268 -3 -142 -3 -266 -2 -275 9 -40
102 -46 122 -8 6 10 10 55 10 99 l0 81 53 0 c60 0 58 2 99 -110 12 -30 26 -61
31 -69 28 -35 108 -37 126 -2 7 12 2 35 -15 77 -63 148 -61 136 -28 179 26 34
29 46 29 110 0 61 -4 78 -27 112 -41 63 -81 76 -233 80 -77 3 -136 0 -145 -6z
m237 -132 c46 -17 57 -57 26 -91 -13 -14 -31 -18 -85 -18 l-68 0 0 53 c0 30 3
57 7 60 10 11 89 8 120 -4z"/>
<path d="M5182 5523 c-13 -3 -43 -23 -67 -46 -61 -59 -79 -125 -73 -271 5
-119 21 -167 70 -213 95 -89 257 -59 321 60 20 38 22 56 22 182 0 123 -3 145
-22 180 -26 48 -68 90 -106 104 -28 11 -100 13 -145 4z m105 -142 c38 -24 47
-67 41 -187 -3 -66 -6 -78 -28 -95 -35 -26 -72 -24 -101 7 -22 24 -24 33 -24
133 0 113 7 134 50 151 28 12 26 12 62 -9z"/>
<path d="M5580 5510 c-19 -19 -20 -33 -19 -262 1 -134 4 -254 8 -268 l7 -25
213 -3 c149 -2 218 1 227 9 21 17 18 83 -4 102 -16 14 -43 17 -164 17 -143 0
-146 0 -152 23 -3 12 -6 108 -6 214 0 180 -1 193 -19 203 -31 16 -69 12 -91
-10z"/>
<path d="M6918 5520 c-112 -34 -178 -143 -178 -295 0 -90 21 -152 71 -209 75
-85 197 -105 306 -50 86 43 103 74 103 190 0 113 -1 114 -124 114 -92 0 -106
-8 -106 -63 0 -32 17 -45 65 -49 32 -2 41 -7 43 -24 5 -33 -41 -64 -95 -64
-91 0 -133 50 -133 159 0 147 87 208 208 149 45 -21 45 -21 81 -2 67 35 50 86
-44 130 -52 25 -141 31 -197 14z"/>
<path d="M7346 5514 c-9 -8 -16 -21 -16 -27 0 -7 41 -73 91 -147 127 -190 129
-194 129 -293 0 -80 1 -84 25 -95 37 -17 62 -15 85 8 17 17 19 32 18 102 l-2
83 99 150 c118 180 128 201 101 221 -29 21 -82 18 -106 -6 -12 -12 -50 -66
-85 -120 -36 -55 -68 -100 -73 -100 -5 0 -35 41 -68 92 -88 136 -99 148 -144
148 -22 0 -45 -7 -54 -16z"/>
<path d="M4998 4687 c-20 -15 -101 -214 -93 -227 12 -19 36 -10 53 20 14 25
23 30 54 30 30 0 40 -5 55 -30 9 -17 26 -30 36 -30 16 0 18 5 13 30 -3 17 -19
62 -36 100 -16 37 -30 73 -30 78 0 5 -8 16 -18 25 -15 14 -21 14 -34 4z m29
-97 c11 -28 10 -30 -13 -30 -26 0 -27 3 -18 38 8 30 17 28 31 -8z"/>
<path d="M5772 4688 c-15 -19 -82 -197 -82 -219 0 -32 37 -23 49 11 9 27 14
30 55 30 33 0 46 -4 46 -14 0 -19 27 -46 46 -46 21 0 18 17 -27 131 -46 117
-62 136 -87 107z m26 -126 c-27 -5 -30 1 -17 34 l11 29 12 -30 c11 -27 11 -30
-6 -33z"/>
<path d="M4146 4668 c-9 -34 -7 -181 3 -196 13 -21 82 -26 124 -9 44 19 57 55
33 92 -10 15 -12 26 -6 30 18 11 11 64 -12 85 -17 15 -35 20 -79 20 -50 0 -57
-3 -63 -22z m114 -39 c14 -25 14 -25 -32 -33 -35 -6 -38 -5 -38 17 0 13 3 27
7 30 14 15 53 6 63 -14z m0 -84 c20 -24 4 -45 -35 -45 -30 0 -35 3 -35 23 0
13 3 27 7 30 12 12 50 7 63 -8z"/>
<path d="M4355 4679 c-4 -5 9 -35 29 -64 25 -37 36 -66 36 -91 0 -42 15 -74
35 -74 11 0 15 13 15 53 0 43 6 63 35 107 41 65 44 83 13 78 -15 -2 -30 -17
-44 -46 l-22 -43 -20 26 c-12 15 -24 35 -27 46 -7 20 -40 26 -50 8z"/>
<path d="M4665 4668 c-3 -13 -5 -66 -3 -118 3 -90 4 -95 26 -98 20 -3 22 1 22
37 0 66 37 66 71 0 13 -26 26 -39 39 -39 26 0 26 25 0 57 -20 26 -20 26 0 58
26 43 25 71 -5 100 -20 21 -34 25 -84 25 -55 0 -61 -2 -66 -22z m106 -28 c23
-13 25 -48 4 -56 -30 -12 -65 5 -65 30 0 33 26 44 61 26z"/>
<path d="M5267 4684 c-4 -4 -7 -47 -7 -96 0 -73 -3 -88 -16 -88 -8 0 -22 7
-31 15 -21 21 -38 14 -38 -15 0 -57 94 -64 122 -10 19 37 13 194 -7 198 -9 1
-19 0 -23 -4z"/>
<path d="M5568 4598 c-3 -88 -4 -93 -25 -96 -13 -2 -23 1 -23 7 0 18 -40 13
-47 -6 -8 -22 31 -53 67 -53 15 0 38 8 51 19 21 17 24 29 27 120 l4 101 -25 0
c-26 0 -26 0 -29 -92z"/>
<path d="M5980 4673 c0 -10 -2 -56 -4 -103 -3 -101 0 -120 24 -120 23 0 29 16
27 83 l-2 55 27 -31 c15 -18 38 -47 50 -64 24 -34 44 -47 59 -37 5 3 9 57 9
120 0 114 0 115 -22 112 -21 -3 -23 -10 -28 -72 l-5 -69 -49 72 c-48 70 -86
93 -86 54z"/>
<path d="M6257 4683 c-4 -3 -7 -55 -7 -114 0 -88 3 -108 16 -113 9 -3 20 -4
25 0 5 3 9 57 9 120 0 104 -2 114 -18 114 -10 0 -22 -3 -25 -7z"/>
<path d="M3872 4578 c-7 -7 -12 -21 -12 -33 0 -12 5 -26 12 -33 7 -7 21 -12
33 -12 12 0 26 5 33 12 7 7 12 21 12 33 0 12 -5 26 -12 33 -7 7 -21 12 -33 12
-12 0 -26 -5 -33 -12z"/>
<path d="M6644 4563 c-8 -32 6 -57 35 -61 28 -4 51 14 51 42 0 30 -18 46 -52
46 -22 0 -29 -6 -34 -27z"/>
<path d="M5980 4215 c0 -8 7 -15 15 -15 8 0 15 7 15 15 0 8 -7 15 -15 15 -8 0
-15 -7 -15 -15z"/>
<path d="M4164 4205 c-4 -8 -15 -15 -25 -15 -19 0 -26 -20 -11 -34 4 -4 7 -20
7 -34 0 -19 4 -26 15 -23 8 3 30 4 48 4 32 -2 33 0 27 28 -4 18 -3 29 4 29 6
0 11 5 11 10 0 6 -8 10 -19 10 -10 0 -21 9 -24 20 -6 24 -25 26 -33 5z"/>
<path d="M5271 4129 c-12 -39 -29 -85 -36 -103 l-14 -33 -97 50 c-92 47 -97
48 -91 26 10 -46 59 -154 80 -176 19 -21 19 -23 3 -23 -27 0 -186 -51 -186
-60 0 -7 41 -20 128 -40 43 -10 52 -15 47 -29 -4 -9 -11 -27 -15 -41 -5 -14
-20 -54 -34 -89 -14 -36 -26 -66 -26 -68 0 -11 32 3 102 42 44 25 84 45 88 45
8 0 70 -179 70 -204 0 -26 17 -18 24 12 4 15 19 65 34 112 l27 86 87 -48 c80
-44 108 -55 108 -43 0 11 -63 162 -77 183 -8 13 -13 25 -11 26 2 1 47 12 100
25 54 13 100 26 103 30 2 5 -30 18 -73 31 -42 12 -87 27 -99 33 l-22 12 40 95
c21 52 39 96 39 98 0 10 -37 -5 -104 -43 -43 -25 -80 -44 -81 -43 -7 10 -65
163 -65 173 0 7 -6 17 -13 23 -11 9 -18 -3 -36 -59z m48 -155 c-8 -10 -16 -11
-30 -3 -23 12 -23 19 -3 67 l17 37 13 -44 c10 -32 11 -48 3 -57z m-167 -2 c29
-23 34 -31 27 -50 -5 -12 -12 -22 -16 -22 -9 0 -53 74 -53 89 0 16 3 14 42
-17z m328 6 c0 -18 -23 -78 -30 -78 -4 0 -12 12 -19 27 -11 24 -10 29 9 45 26
21 40 23 40 6z m-202 -59 c16 -26 0 -49 -34 -49 -32 0 -37 14 -19 49 16 33 33
33 53 0z m110 -4 c7 -14 12 -30 12 -34 0 -18 -41 -19 -61 -2 -18 15 -20 21
-10 39 16 30 45 28 59 -3z m-162 -77 c4 -6 -3 -19 -16 -30 -19 -15 -32 -17
-69 -12 -97 15 -102 20 -31 37 81 19 107 20 116 5z m285 -12 l31 -13 -57 -11
c-60 -12 -95 -4 -95 23 0 28 56 28 121 1z m-231 -85 c0 -10 -9 -26 -19 -35
-18 -16 -20 -16 -40 12 -26 37 -26 41 2 51 28 11 57 -4 57 -28z m104 26 c18
-13 18 -15 1 -41 -10 -15 -25 -26 -34 -24 -20 4 -27 44 -11 64 15 17 21 18 44
1z m-208 -54 c21 -28 17 -38 -26 -62 -22 -12 -40 -20 -40 -18 0 11 42 97 47
97 3 0 12 -8 19 -17z m291 -34 c12 -27 19 -49 15 -47 -4 2 -24 14 -44 26 -36
23 -37 24 -22 48 9 13 19 24 23 24 4 0 17 -23 28 -51z m-144 -13 c5 -14 -8
-80 -21 -100 -3 -5 -11 14 -19 43 -7 29 -11 57 -7 62 8 14 41 11 47 -5z"/>
<path d="M5974 4127 c-2 -7 -3 -78 -2 -157 3 -127 5 -143 21 -146 16 -2 17 11
17 157 0 136 -2 159 -15 159 -9 0 -18 -6 -21 -13z"/>
<path d="M6382 4118 c-6 -15 -25 -37 -41 -49 -38 -28 -39 -42 -6 -57 14 -7 30
-23 37 -37 15 -33 29 -31 51 6 9 17 26 33 37 36 28 7 25 19 -12 56 -18 18 -38
41 -44 52 -12 19 -12 19 -22 -7z"/>
<path d="M4785 4040 c-37 -41 24 -97 63 -58 18 18 14 56 -7 68 -27 14 -35 13
-56 -10z"/>
<path d="M5775 4034 c-34 -34 -1 -83 47 -71 33 9 42 34 23 63 -18 28 -47 31
-70 8z"/>
<path d="M4536 3984 c-4 -14 -22 -34 -41 -46 -43 -25 -44 -36 -5 -51 18 -7 33
-21 36 -34 11 -42 29 -45 47 -8 10 21 26 37 42 41 32 8 32 27 0 48 -13 9 -32
30 -40 46 -19 37 -31 38 -39 4z"/>
<path d="M5970 3783 c-50 -18 -68 -84 -32 -116 19 -17 68 -22 88 -9 19 13 35
52 29 72 -6 19 -51 61 -64 59 -3 0 -13 -3 -21 -6z m33 -69 c-3 -8 -9 -14 -13
-14 -14 0 -22 20 -16 37 5 12 9 13 21 3 7 -6 11 -18 8 -26z"/>
<path d="M4782 3638 c-7 -7 -12 -21 -12 -33 0 -12 5 -26 12 -33 7 -7 21 -12
33 -12 12 0 26 5 33 12 7 7 12 21 12 33 0 12 -5 26 -12 33 -7 7 -21 12 -33 12
-12 0 -26 -5 -33 -12z"/>
</g>
</svg>
